<svg xmlns="http://www.w3.org/2000/svg" viewBox="0 0 328 328">
  <defs>
    <style>
      .cls-1 {
        fill: #e9aa00;
      }

      .cls-2 {
        fill: #db9c00;
      }

      .cls-3 {
        fill: #237e0d;
      }

      .cls-4 {
        fill: #e75244;
      }

      .cls-5 {
        opacity: 0.2;
      }
    </style>
  </defs>
  <g id="objects">
    <g>
      <g>
        <path class="cls-1" d="M566.5,389a163.28,163.28,0,0,1-13.66,65.62l-1-.45-21.78-21.78L517.4,419.78l.24-.24-112.22-113-113,113,.19.19L280,432.13,400.47,552.57V553a164,164,0,1,1,166-164Z" transform="translate(-238.5 -225)"/>
        <path class="cls-2" d="M551.84,454.17l1,.45A164.05,164.05,0,0,1,402.5,553c-.67,0-1.36,0-2,0v-.41L280,432.13a175.79,175.79,0,0,0,125,52h0a175.5,175.5,0,0,0,125-51.73Z" transform="translate(-238.5 -225)"/>
        <path class="cls-3" d="M517.4,419.78l12.66,12.61a175.5,175.5,0,0,1-125,51.73h0a175.79,175.79,0,0,1-125-52l12.61-12.4A159.21,159.21,0,0,0,517.4,419.78Z" transform="translate(-238.5 -225)"/>
        <path class="cls-4" d="M405.42,306.57l112.22,113-.24.24-12.17-12.13c-26.77,26.76-62.34,42-100.17,42h0c-37.82,0-73.4-15.19-100.17-41.95l-12.22,12-.19-.19ZM463,392.23a15,15,0,1,0-15,15A15,15,0,0,0,463,392.23Zm-42.76-39.7a15,15,0,1,0-15,15A15,15,0,0,0,420.24,352.53Zm-45.82,39.7a15,15,0,1,0-15,15A15,15,0,0,0,374.42,392.23Z" transform="translate(-238.5 -225)"/>
        <path class="cls-3" d="M505.23,407.65l12.17,12.13a159.21,159.21,0,0,1-224.75,0l12.22-12c26.77,26.76,62.35,41.95,100.17,41.95h0C442.89,449.68,478.46,434.41,505.23,407.65Z" transform="translate(-238.5 -225)"/>
        <path d="M448,377.22a15,15,0,1,1-15,15A15,15,0,0,1,448,377.22Z" transform="translate(-238.5 -225)"/>
        <path d="M405.22,337.52a15,15,0,1,1-15,15A15,15,0,0,1,405.22,337.52Z" transform="translate(-238.5 -225)"/>
        <path d="M359.4,377.22a15,15,0,1,1-15,15A15,15,0,0,1,359.4,377.22Z" transform="translate(-238.5 -225)"/>
      </g>
      <path class="cls-5" d="M517.52,419.65l.12-.12-112.23-113L405,484.12h.1a175.69,175.69,0,0,0,125-51.89Z" transform="translate(-238.5 -225)"/>
    </g>
  </g>
</svg>
