<svg width="268" height="268" viewBox="0 0 268 268" fill="none" xmlns="http://www.w3.org/2000/svg">
<circle cx="134" cy="134" r="134" fill="#EFB659"/>
<g style="mix-blend-mode:multiply" opacity="0.4">
<path d="M138.785 228.503C138.785 228.975 137.511 229.37 135.919 229.37C134.326 229.37 133.052 228.975 133.052 228.503C133.052 228.031 134.337 227.624 135.919 227.624C137.5 227.624 138.785 228.02 138.785 228.503Z" fill="#FF8300"/>
</g>
<path d="M53.8402 50.1131C53.8314 48.5528 54.4413 47.0527 55.5364 45.9412C56.6314 44.8297 58.1223 44.1974 59.6825 44.1829L208.125 43.6997C209.684 43.7026 211.178 44.3241 212.28 45.4276C213.381 46.5312 214 48.0268 214 49.586V62.4238C214.009 63.9841 213.399 65.4843 212.304 66.5958C211.209 67.7073 209.718 68.3395 208.157 68.354L59.7594 68.8592C58.9869 68.8592 58.222 68.7068 57.5085 68.4109C56.795 68.115 56.1468 67.6812 55.6011 67.1345C55.0553 66.5877 54.6228 65.9387 54.3282 65.2247C54.0336 64.5106 53.8827 63.7454 53.8841 62.9729L53.8402 50.1131Z" fill="#825506"/>
<path d="M55.1909 52.6501C55.1909 49.9705 57.7826 47.7961 60.9893 47.7851L208.146 47.3019C211.353 47.3019 213.967 49.4983 213.967 52.1339V62.6765C213.967 65.3561 211.375 67.5305 208.168 67.5415L61.0113 68.0247C57.8156 68.0247 55.2019 65.8283 55.1909 63.1927V52.6501Z" fill="#EFB659"/>
<g style="mix-blend-mode:multiply" opacity="0.3">
<path d="M57.53 67.2667C63.2735 69.9024 66.8866 66.7286 72.3885 66.4651C76.8691 66.2564 81.3278 67.3875 85.8743 67.08C89.2896 66.8604 92.3206 65.872 95.6371 65.29C103.105 63.9722 111.33 63.7745 118.919 63.0936C123.677 62.7761 128.453 62.8679 133.195 63.3682C137.302 63.7196 142.277 65.0264 146.308 64.0051C144.254 61.8087 138.466 62.5226 135.589 62.3139C131.751 62.1968 127.925 61.83 124.135 61.2157C117.008 59.7991 121.741 57.2403 126.331 56.2849C136.27 54.2093 146.56 55.9444 156.587 55.2855C158.234 55.1647 169.271 54.8023 168.82 52.3753C168.205 49.1466 155.642 51.2771 153.567 51.4309C147.274 51.7713 140.97 51.4309 134.7 51.947C129.264 52.3534 123.509 51.6066 118.15 52.4742C114.372 53.0891 110.869 54.989 107.223 56.0872C102.83 57.438 98.4375 57.0536 93.9459 56.0872C90.882 55.3843 87.9059 54.6156 84.7651 55.1977C81.1301 55.8785 78.7141 56.4716 75.2987 54.4509C72.8388 53.0013 71.0158 50.7061 68.0177 51.0355C65.9202 51.2661 64.2399 52.2984 62.0655 52.3753C57.9144 52.54 56.2451 54.4728 55.6521 58.6789C55.114 62.4347 56.344 65.6853 60.2975 66.52C60.2975 65.9379 59.99 66.2125 59.6056 65.9599L57.53 67.2667Z" fill="#EFB659"/>
</g>
<g style="mix-blend-mode:multiply" opacity="0.7">
<path d="M105.312 65.1583C111.813 68.2332 117.985 65.8611 124.453 64.719C128.473 63.9942 132.668 65.3999 136.687 65.8172C140.471 66.0004 144.265 65.8424 148.02 65.345C160.396 64.4813 172.81 64.309 185.205 64.8289C191.97 65.0265 199.163 65.8502 205.851 64.9826C207.564 64.752 210.738 64.8289 211.891 63.2694C213.044 61.71 212.199 58.3715 212.275 56.6803C212.363 54.4839 213.374 52.2876 212.572 50.179C211.474 47.3457 207.74 46.6209 204.885 46.2256C191.772 44.4245 178.594 45.7424 165.427 45.4019C154.884 45.1274 144.309 45.6765 133.777 45.7204C132.338 45.7204 127.188 45.1823 126.243 46.6868C124.651 49.1797 131.493 49.0808 132.833 49.0699C140.641 48.9491 148.427 47.9717 156.246 48.0376C162.563 48.1096 168.852 48.898 174.992 50.3877C178.814 51.2552 185.359 52.2107 188.17 55.1977C186.808 56.5705 175.662 55.5602 177.924 59.305C172.982 61.5013 167.217 59.0085 162.022 60.2055C156.828 61.4025 153.841 64.5323 148.317 63.0498C145.506 62.2811 142.573 61.1938 139.619 61.7869C136.665 62.3799 134.326 63.7416 131.372 63.9832C125.178 64.5543 116.404 65.8172 110.506 63.4122C106.663 61.8637 104.543 59.9639 99.7222 61.8638C98.2836 62.4348 97.1854 63.3134 95.571 63.3683C92.6718 63.4561 89.2125 62.1493 86.2804 61.8308C84.3476 61.6222 71.0815 61.0181 77.8243 65.4987C81.7119 68.0905 88.1034 66.5091 92.4192 66.0478C95.4884 65.5815 98.6068 65.5372 101.688 65.9161C103.676 66.2455 105.619 66.9484 107.585 66.0588L105.312 65.1583Z" fill="#EFB659"/>
</g>
<path d="M93.1114 139.242V54.2095C93.1114 51.8374 90.4867 49.9265 87.258 49.9265H84.0184C80.7238 49.9265 78.165 51.8374 78.165 54.2095V139.242C78.165 141.614 80.7787 143.525 84.0184 143.525H87.258C90.4867 143.536 93.1114 141.614 93.1114 139.242ZM89.7619 63.3683C89.7619 66.4323 86.1708 67.8489 85.3691 67.8489C82.9531 67.8489 80.9764 65.1803 80.9764 63.3683C80.9764 61.5563 82.9422 60.0738 85.3691 60.0738C87.7961 60.0738 89.7619 61.5124 89.7619 63.3683Z" fill="#E50505"/>
<path d="M108.717 209.877L100.184 167.312C99.0856 164.127 99.0856 164.127 95.791 164.127C95.791 164.127 91.5849 163.303 91.1017 162.227C89.3007 158.208 90.2232 143.437 90.2232 143.437H79.8782C79.8782 143.437 80.9764 158.306 79.2523 162.227C78.824 163.182 74.8595 164.127 74.8595 164.127C71.6309 164.127 70.1813 165.642 70.1813 168.322L61.3958 209.877C61.3958 212.568 64.0204 214.731 67.2491 214.731H102.775C106.103 214.731 108.717 212.568 108.717 209.877ZM76.0675 172.407L70.6974 199.862C70.5107 200.806 69.7969 201.487 69.105 201.399C68.4132 201.311 68.0068 200.455 68.1935 199.521L73.5637 172.067C73.7504 171.122 76.2542 171.463 76.0675 172.407ZM82.1295 172.682L78.4945 207.912C78.4582 208.469 78.2109 208.992 77.8029 209.373C77.3948 209.755 76.8568 209.966 76.2982 209.965C76.0299 209.931 75.7713 209.842 75.538 209.705C75.3048 209.568 75.1015 209.385 74.9405 209.168C74.7795 208.951 74.6641 208.703 74.6011 208.44C74.5381 208.177 74.5289 207.904 74.574 207.637L78.209 172.407C78.3627 171.199 82.2503 171.474 82.1295 172.682ZM87.8291 209.328C87.8714 209.61 87.8525 209.897 87.7737 210.17C87.6948 210.443 87.558 210.696 87.3724 210.912C87.1868 211.127 86.9569 211.3 86.6984 211.419C86.4399 211.537 86.1588 211.599 85.8744 211.599C85.5899 211.599 85.3088 211.537 85.0503 211.419C84.7918 211.3 84.5619 211.127 84.3763 210.912C84.1907 210.696 84.0539 210.443 83.975 210.17C83.8962 209.897 83.8773 209.61 83.9196 209.328V172.682C83.9196 171.419 87.8291 171.419 87.8291 172.682V209.328ZM93.4518 172.616L97.3394 207.835C97.3879 208.101 97.3818 208.374 97.3216 208.638C97.2614 208.901 97.1483 209.15 96.9891 209.369C96.83 209.587 96.6281 209.772 96.3958 209.91C96.1634 210.048 95.9053 210.138 95.6372 210.174C95.0804 210.175 94.5438 209.965 94.1361 209.586C93.7283 209.207 93.4798 208.687 93.4409 208.131L89.5533 172.912C89.4325 171.704 93.3201 171.408 93.4518 172.616ZM101.414 201.608C100.722 201.696 100.019 200.993 99.8543 200.049L95.0222 172.594C94.8575 171.638 97.3614 171.342 97.5261 172.286L102.369 199.741C102.534 200.696 102.106 201.52 101.414 201.608Z" fill="#022844"/>
<path d="M97.6028 170.595C97.493 167.806 92.9794 167.97 91.0137 166.543C90.1549 165.75 89.5253 164.741 89.1907 163.622C88.5798 162.161 88.0805 160.656 87.6972 159.119C87.2689 157.45 86.8406 155.825 86.4342 154.1C86.1597 153.002 85.8961 151.421 84.5014 150.927C82.6126 150.268 82.2392 151.52 81.0861 152.233C80.9433 150.608 80.9543 148.939 80.8664 147.314C80.7141 146.625 80.6807 145.916 80.7676 145.216C81.0641 144.458 82.1293 144.272 82.964 144.118C84.1171 143.964 88.6196 143.228 89.3993 144.195C89.9265 144.854 89.3335 146.984 89.3115 147.753C89.2236 149.285 89.2236 150.822 89.3115 152.354C89.4433 153.749 89.7068 155.166 89.7947 156.56C89.7507 157.761 89.8727 158.962 90.1571 160.129C90.794 162.04 91.5957 164.522 94.2643 165.06C95.1643 165.109 96.0541 165.275 96.9109 165.554C97.8637 165.954 98.6613 166.651 99.1842 167.542C99.8321 168.805 99.5686 170.837 97.5918 170.639L97.6028 170.595Z" fill="#073551"/>
<path d="M64.3278 213.93C64.0312 213.238 63.0429 212.832 62.6915 212.096C62.3886 211.26 62.2797 210.366 62.373 209.482C62.5121 207.647 62.8321 205.83 63.3284 204.057C63.7128 202.058 63.9544 200.038 64.3497 198.017C64.5474 196.996 64.7231 195.964 64.9757 194.931C65.2283 193.899 65.4589 192.164 66.2825 191.263C66.2276 193.778 66.1837 196.304 66.0739 198.83C65.964 201.356 66.0739 204.453 67.6443 206.759C69.2147 209.065 71.9162 209.526 73.882 211.239C76.9349 213.886 70.0493 214.336 68.2263 214.424C67.4157 214.475 66.6019 214.408 65.8103 214.226C65.3271 214.106 64.2289 213.655 64.1301 213.677L64.3278 213.93Z" fill="#073551"/>
<path d="M94.2862 141.252C94.2862 138.836 90.3108 136.859 85.4019 136.859C80.493 136.859 76.5176 138.814 76.5176 141.252C76.5176 143.69 80.493 145.645 85.4019 145.645C90.3108 145.645 94.2862 143.668 94.2862 141.252Z" fill="#022844"/>
<path d="M86.2806 136.53C83.5022 135.541 83.3485 132.049 82.9861 130.072C82.404 126.624 80.592 79.5555 80.592 69.3534C80.592 64.4774 79.8233 57.0537 84.82 53.232C75.749 52.1338 79.3291 119.705 79.6146 125.581C79.6548 127.71 79.5741 129.841 79.373 131.961C79.3071 133.004 79.4828 134.07 79.373 135.102C79.2632 136.134 78.769 136.848 78.769 137.759C79.7081 137.056 80.7747 136.541 81.9098 136.244C83.4473 135.991 84.7651 136.562 86.1818 136.551C86.02 136.897 85.7554 137.185 85.424 137.375L86.2806 136.53Z" fill="#F72B2B"/>
<g style="mix-blend-mode:multiply" opacity="0.5">
<path d="M91.9583 62.5995C91.7606 59.305 93.0565 51.5298 86.9506 51.2003C82.2943 50.9478 79.7574 53.1551 79.1425 56.1422C77.9345 62.1383 78.2419 69.002 78.6593 75.1299C82.7555 75.6131 84.853 78.7649 85.7096 81.4774C87.2202 86.4779 88.1416 91.6377 88.4551 96.852C89.4435 110.437 90.333 124.076 90.333 137.727H89.8168C90.1215 137.863 90.4614 137.901 90.7885 137.834C91.1157 137.767 91.4135 137.599 91.6398 137.353C92.2548 136.771 91.8924 135.398 91.8924 134.685V118.893C91.9583 100.19 93.1114 81.3785 91.9583 62.5995ZM89.685 62.9839C89.6964 63.0971 89.6964 63.2112 89.685 63.3243C89.7509 62.7533 89.4325 65.5976 89.3885 65.6415C88.7872 66.2574 88.0532 66.7279 87.2425 67.0172C86.4317 67.3065 85.5657 67.4069 84.7103 67.3108C82.8653 67.1131 80.8666 64.73 81.0203 63.4451C81.0411 63.2773 81.0779 63.1118 81.1302 62.951C81.3249 62.3452 81.6617 61.7948 82.1126 61.3458C82.5635 60.8968 83.1153 60.5623 83.7219 60.3702C84.5378 60.0599 85.4192 59.9616 86.2834 60.0845C87.1477 60.2074 87.9667 60.5476 88.6637 61.0731C88.9322 61.2774 89.1596 61.5308 89.3336 61.8198L89.3995 61.9516C89.6055 62.2596 89.7301 62.6147 89.7619 62.9839H89.685Z" fill="#B20808"/>
</g>
<path d="M78.2417 59.4918C79.6913 57.6248 84.4465 57.6248 87.0272 57.8115C89.8606 57.9982 91.2333 59.1294 93.4297 60.2166C93.836 55.703 94.5279 49.7948 86.8405 49.2347C83.4691 48.9931 79.8671 49.2347 78.681 51.7056C77.5828 54.0008 77.9562 55.9776 78.2198 59.4808C78.2967 59.349 78.2198 59.5906 78.2198 59.4808C78.2417 59.3499 78.2417 59.2163 78.2198 59.0854C78.2198 59.0854 77.8793 59.6235 78.2417 59.4918Z" fill="#073551"/>
<path d="M80.9104 145.304C79.4827 144.447 77.6158 143.36 77.495 141.471C77.3962 139.044 81.3057 137.704 83.2385 137.924C83.1507 138.649 82.6016 139.385 82.7883 140.12C83.0628 141.284 84.4795 141.735 85.4239 142.218C86.3684 142.701 89.3774 143.635 87.8399 144.843C86.3025 146.051 82.349 145.941 80.9104 145.062V145.304Z" fill="#073551"/>
<path d="M80.2294 144.81C79.263 143.964 77.5279 142.998 77.8903 141.362C77.9562 141.054 78.066 140.593 78.4723 140.494C79.0654 140.362 78.8897 140.692 79.1752 140.977C79.7786 141.772 80.6346 142.337 81.6022 142.581C82.4807 142.789 83.7985 142.899 84.2159 143.92C84.4684 144.645 84.128 145.019 83.4471 145.282C82.0524 145.809 80.9213 144.953 79.8451 144.513L80.2294 144.81Z" fill="#186389"/>
<path d="M89.3008 144.634C91.014 143.657 90.5857 141.339 89.5974 140.11C88.9604 139.308 87.401 137.781 86.4126 137.748C88.8835 137.748 93.0017 138.111 93.5948 141.197C94.045 143.58 91.2337 144.953 89.202 144.744L89.3008 144.634Z" fill="#186389"/>
<path d="M90.4757 162.919C89.092 159.383 88.9493 155.297 88.3562 151.596C87.9719 149.246 86.9176 146.666 84.26 146.391C85.1276 146.16 86.05 146.051 86.9396 145.875C87.6477 145.624 88.3865 145.468 89.1359 145.414C89.2897 148.522 89.0261 151.651 89.3446 154.726C89.6301 157.483 90.4428 160.053 90.4428 162.82L90.4757 162.919Z" fill="#186389"/>
<path d="M78.1101 59.4257C78.1101 58.3824 78.1101 57.3501 78.1101 56.3069C78.0434 55.408 78.0877 54.5043 78.2419 53.6163C78.7141 51.7054 80.2735 49.6518 82.426 49.7177C82.3601 49.9374 82.0965 50.157 81.9647 50.3657C81.7215 50.7769 81.5785 51.2396 81.5474 51.7164C81.4706 52.7326 81.4706 53.7532 81.5474 54.7694C81.5778 55.3826 81.6586 55.9924 81.789 56.5924C81.8992 56.9477 81.9511 57.3186 81.9428 57.6906C81.155 57.7695 80.3997 58.0451 79.7464 58.4922C79.2522 58.7997 78.3078 59.1951 78.0662 59.7661L78.1101 59.4257Z" fill="#186389"/>
<g style="mix-blend-mode:multiply" opacity="0.4">
<path d="M90.2119 58.2398C90.1219 58.0319 90.077 57.8073 90.0801 57.5809C89.9958 57.1578 89.8555 56.7478 89.6628 56.3619C89.2672 55.4441 88.7621 54.5775 88.1583 53.7811C87.1231 52.4783 85.6604 51.5836 84.0291 51.2553C82.9309 50.9917 81.2068 50.6183 80.2074 51.2553C79.677 51.6189 79.1873 52.0387 78.7468 52.5072C79.1904 52.1605 79.5633 51.7318 79.845 51.2443C80.179 50.8092 80.5881 50.4373 81.053 50.1461C82.1664 49.5185 83.433 49.2142 84.71 49.2676C86.0243 49.2969 87.333 49.4476 88.6195 49.7178C89.9489 49.8574 91.1935 50.4372 92.1557 51.3651C92.695 52.0099 93.0984 52.7569 93.3417 53.5615C93.5303 54.3298 93.6044 55.1217 93.5614 55.9116C93.5614 56.7243 93.4406 57.515 93.3747 58.3166C93.4121 58.8552 93.345 59.396 93.177 59.909C92.8805 59.7553 92.6389 59.3489 92.3424 59.1513C92.0324 58.9532 91.7008 58.7911 91.354 58.6681C90.9515 58.4778 90.5216 58.3518 90.0801 58.2947L90.2119 58.2398Z" fill="#022D42"/>
</g>
<path d="M77.956 60.2714C78.1843 59.8839 78.4451 59.5165 78.7357 59.1732C79.1051 58.7973 79.5615 58.5181 80.0645 58.3606C81.0916 57.9991 82.1714 57.8099 83.2602 57.8005C85.6709 57.5971 88.0973 57.9117 90.3765 58.723C91.179 59.0304 91.8949 59.5278 92.463 60.1726C92.7035 60.4086 92.8842 60.6984 92.9902 61.0182C93.078 61.3147 93.0561 61.6222 93.1439 61.8968C93.9126 61.3806 93.8028 59.8431 93.3416 59.1513C93.0231 58.69 92.9682 58.6791 92.6497 58.2288C92.0484 57.5667 91.2944 57.0615 90.4534 56.7572C89.2971 56.218 88.0691 55.8482 86.8074 55.659C85.502 55.4944 84.1812 55.4944 82.8759 55.659C81.5361 55.8128 79.164 56.6584 78.3513 57.7456C78.0323 58.1852 77.8318 58.6996 77.7693 59.2391C77.7693 59.4917 77.7693 60.3373 78.0878 60.2714H77.956Z" fill="#267DA8"/>
<path d="M85.4572 67.5526C84.9935 67.5089 84.5499 67.342 84.1723 67.0694C83.6626 66.7284 83.2772 66.2313 83.0741 65.6527C82.8292 65.006 82.7269 64.3139 82.7743 63.624C82.8217 62.934 83.0176 62.2625 83.3487 61.6553C84.6555 59.5248 87.6646 60.0849 88.8396 62.0616C89.2286 62.6839 89.3986 63.4183 89.3228 64.1482C89.1966 64.6884 89.0163 65.2145 88.7847 65.7186C89.1885 65.1867 89.4531 64.5624 89.5543 63.9024C89.6556 63.2423 89.5903 62.5674 89.3645 61.939C89.1386 61.3105 88.7594 60.7485 88.2611 60.3039C87.7629 59.8592 87.1614 59.5462 86.5114 59.393C84.5896 59.0855 81.9759 59.7774 80.9656 61.5894C80.131 63.072 80.9656 65.1036 82.0638 66.2018C82.8106 66.9815 84.2602 68.0467 85.3584 67.4867C85.3783 67.5695 85.3797 67.6558 85.3627 67.7393C85.3456 67.8228 85.3104 67.9015 85.2595 67.9699L85.4572 67.5526Z" fill="#490303"/>
<path d="M191.893 145.985C191.895 145.831 191.866 145.678 191.808 145.534C191.75 145.391 191.665 145.261 191.557 145.151C191.449 145.041 191.32 144.953 191.178 144.893C191.036 144.832 190.884 144.8 190.729 144.799C190.574 144.799 190.42 144.83 190.277 144.889C190.134 144.949 190.004 145.037 189.895 145.147C189.785 145.257 189.699 145.388 189.641 145.532C189.582 145.676 189.553 145.83 189.554 145.985V215.665C189.554 216.313 189.686 216.082 190.334 216.082L190.729 216.851C191.04 216.845 191.336 216.718 191.554 216.496C191.771 216.274 191.893 215.976 191.893 215.665V145.985Z" fill="#387C96"/>
<path d="M192.222 215.83C194.265 215.325 196.527 212.337 197.878 210.756C199.558 208.965 200.868 206.86 201.733 204.562C204.281 197.413 202.622 191.011 200.997 183.818C199.064 175.175 196.67 166.521 195.385 157.769C194.979 154.979 194.935 152.179 194.759 149.367C194.704 148.423 194.825 142.372 193.43 144.623C192.793 145.667 193.43 148.895 193.43 150.114C193.43 152.42 193.584 154.672 193.771 156.978C194.155 161.491 194.364 166.016 194.748 170.53C195.297 176.921 198.043 183.949 198.877 190.297C199.525 195.173 197.944 200.664 196.989 205.463C196.524 207.571 195.786 209.609 194.792 211.525C194.013 213.117 191.783 215.709 191.673 217.235L192.222 215.83Z" fill="#387C96"/>
<path d="M189.697 216.016C187.665 215.5 185.403 212.513 184.041 210.932C182.365 209.142 181.056 207.042 180.187 204.749C177.639 197.589 179.308 191.186 180.911 183.982C182.855 175.35 185.249 166.697 186.534 157.933C186.94 155.155 186.995 152.365 187.16 149.543C187.215 148.599 187.105 142.559 188.489 144.799C189.126 145.897 188.489 149.082 188.489 150.29C188.489 152.607 188.335 154.858 188.138 157.153C187.753 161.678 187.555 166.192 187.16 170.705C186.611 177.108 185.667 183.312 184.821 189.638C184.052 194.943 184.085 200.333 184.92 205.627C185.382 207.732 186.121 209.767 187.116 211.678C187.886 213.32 188.946 214.808 190.246 216.071L189.697 216.016Z" fill="#186389"/>
<path d="M183.844 144.942C184.568 149.796 183.602 156.176 182.493 161.272C181.69 165.1 180.57 168.854 179.143 172.495C177.529 176.504 175.519 180.391 174.366 184.74C172.389 192.186 171.632 201.597 174.641 208.714C176.936 214.128 182.01 217.499 186.391 217.565C187.151 217.655 187.922 217.558 188.635 217.282C189.349 217.006 189.985 216.561 190.488 215.984C185.304 217.115 179.813 213.095 177.617 205.913C173.696 192.79 180.406 182.116 182.998 170.134C187.83 147.698 184.535 138.539 184.305 144.371C184.535 144.195 184.458 144.514 184.557 144.547L183.844 144.942Z" fill="#022844"/>
<path d="M196.341 144.931C195.638 149.785 196.615 156.176 197.758 161.25C198.571 165.071 199.703 168.818 201.14 172.451C202.765 176.449 204.797 180.325 205.961 184.652C207.96 192.098 208.75 201.487 205.763 208.626C203.49 214.117 198.427 217.466 194.046 217.565C193.286 217.663 192.513 217.572 191.797 217.3C191.08 217.028 190.442 216.583 189.938 216.006C195.166 217.104 200.668 213.051 202.787 205.858C206.664 192.68 199.91 182.083 197.296 170.112C192.387 147.709 195.649 138.539 195.902 144.36C195.671 144.195 195.748 144.503 195.649 144.535L196.341 144.931Z" fill="#022844"/>
<path d="M189.807 216.61C189.872 216.741 189.279 215.874 189.51 216.829C177.65 212.085 183.569 191.747 184.458 182.478C185.293 173.692 186.073 164.907 187.149 156.286C187.588 152.739 188.642 147.38 187.599 143.833C189.927 143.262 189.203 147.391 189.148 148.818C189.005 152.058 188.719 155.309 188.368 158.504C187.687 164.841 187.72 171.265 187.423 177.635C186.907 189.012 183.679 202.432 188.016 213.326C188.467 214.424 190.213 216.093 189.807 216.62V216.61Z" fill="#022844"/>
<path d="M190.608 216.588C190.927 216.159 190.553 216.73 190.608 216.588C202.469 211.832 196.769 191.187 195.879 181.929C195.034 173.143 194.254 164.358 193.189 155.726C192.75 152.179 191.695 146.82 192.739 143.273C190.4 142.702 191.124 146.831 191.19 148.258C191.322 151.498 191.619 154.749 191.959 157.955C192.64 164.281 192.607 170.705 192.903 177.086C193.431 188.463 196.648 201.872 192.321 212.766C191.871 213.864 190.246 216.06 190.608 216.588Z" fill="#022844"/>
<path d="M196.89 140.066V55.0221C196.89 52.661 194.265 50.7501 191.037 50.7501H187.742C184.513 50.7501 181.889 52.661 181.889 55.0221V140.066C181.889 142.438 184.513 144.349 187.742 144.349H191.037C194.265 144.349 196.89 142.438 196.89 140.066ZM193.595 64.137C193.595 67.212 190.004 68.6286 189.203 68.6286C186.787 68.6286 184.81 65.949 184.81 64.137C184.81 62.325 186.765 60.8425 189.203 60.8425C191.641 60.8425 193.562 62.325 193.562 64.137H193.595Z" fill="#E50505"/>
<path d="M198.054 142.075C198.054 139.659 194.079 137.683 189.181 137.683C184.283 137.683 180.297 139.638 180.297 142.075C180.297 144.513 184.272 146.468 189.181 146.468C194.09 146.468 198.054 144.481 198.054 142.075Z" fill="#022844"/>
<path d="M190.059 137.353C187.281 136.354 187.116 132.873 186.765 130.896C186.183 127.448 184.36 80.3793 184.36 70.1661C184.36 65.3012 183.602 57.8774 188.599 54.0557C179.517 52.9575 183.108 120.518 183.393 126.404C183.428 128.534 183.347 130.664 183.152 132.785C183.086 133.817 183.261 134.882 183.152 135.926C183.042 136.969 182.548 137.661 182.548 138.583C183.485 137.878 184.553 137.363 185.688 137.068C187.226 136.804 188.544 137.386 189.96 137.364C189.8 137.717 189.535 138.012 189.203 138.21L190.059 137.353Z" fill="#F72B2B"/>
<g style="mix-blend-mode:multiply" opacity="0.5">
<path d="M195.77 63.4232C195.572 60.1286 196.868 52.3425 190.773 52.013C186.117 51.7714 183.569 53.9678 182.965 56.9659C181.757 62.951 182.064 69.8147 182.482 75.9535C186.578 76.4257 188.676 79.5775 189.532 82.2901C191.036 87.2922 191.957 92.4513 192.278 97.6647C193.266 111.249 194.156 124.878 194.156 138.539H193.639C193.942 138.677 194.281 138.715 194.606 138.648C194.932 138.581 195.228 138.412 195.451 138.166C196.077 137.584 195.715 136.2 195.715 135.497V119.716C195.715 101.014 196.89 82.2022 195.77 63.4232ZM193.508 63.8076C193.519 63.9208 193.519 64.0348 193.508 64.148C193.573 63.577 193.255 66.4103 193.211 66.4652C192.609 67.0798 191.875 67.5494 191.064 67.8385C190.254 68.1277 189.388 68.2289 188.533 68.1344C186.688 67.9258 184.689 65.5537 184.843 64.2688C184.864 64.101 184.9 63.9355 184.953 63.7746C185.138 63.1687 185.467 62.6162 185.91 62.1634C186.353 61.7105 186.899 61.3705 187.5 61.1719C188.316 60.8601 189.196 60.76 190.061 60.881C190.925 61.002 191.744 61.3401 192.442 61.8638C192.702 62.077 192.928 62.3289 193.112 62.6105L193.189 62.7313C193.38 63.0594 193.489 63.4285 193.508 63.8076Z" fill="#B20808"/>
</g>
<path d="M184.689 146.128C183.261 145.271 181.394 144.173 181.273 142.284C181.174 139.868 185.084 138.517 187.017 138.748C186.918 139.473 186.38 140.197 186.567 140.944C186.841 142.119 188.258 142.558 189.202 143.042C190.147 143.525 193.156 144.469 191.618 145.677C190.081 146.885 186.127 146.775 184.689 145.897V146.128Z" fill="#073551"/>
<path d="M184.008 145.623C183.042 144.777 181.306 143.821 181.669 142.185C181.735 141.867 181.845 141.416 182.251 141.318C182.844 141.175 182.668 141.515 182.954 141.79C183.549 142.595 184.408 143.166 185.381 143.404C186.248 143.613 187.577 143.712 187.983 144.744C188.247 145.469 187.907 145.842 187.226 146.106C185.82 146.622 184.7 145.776 183.613 145.337L184.008 145.623Z" fill="#186389"/>
<path d="M193.079 145.436C194.793 144.458 194.364 142.141 193.376 140.911C192.739 140.099 191.18 138.583 190.18 138.539C192.662 138.539 196.769 138.902 197.373 141.998C197.824 144.382 195.012 145.754 192.981 145.535L193.079 145.436Z" fill="#186389"/>
<path d="M182.01 60.3152C183.448 58.4483 188.214 58.4483 190.795 58.624C193.617 58.8217 195.001 59.9528 197.197 61.04C197.604 56.5265 198.296 50.6182 190.608 50.0582C187.237 49.8166 183.635 50.0582 182.449 52.5291C181.351 54.8243 181.724 56.801 181.988 60.3043C182.064 60.1725 181.988 60.4141 181.988 60.3043C181.999 60.1764 181.999 60.0478 181.988 59.9199C181.988 59.9199 181.647 60.447 182.01 60.3152Z" fill="#073551"/>
<path d="M181.889 60.2494C181.889 59.2062 181.889 58.1739 181.889 57.1306C181.826 56.2276 181.874 55.3204 182.031 54.429C182.504 52.5292 184.063 50.4756 186.216 50.5415C186.15 50.7501 185.875 50.9807 185.754 51.1894C185.508 51.5998 185.361 52.0625 185.326 52.5402C185.255 53.5566 185.255 54.5767 185.326 55.5931C185.356 56.2064 185.437 56.8161 185.568 57.4161C185.68 57.7708 185.728 58.1427 185.71 58.5143C184.922 58.5913 184.166 58.8672 183.514 59.316C183.009 59.6235 182.075 60.0188 181.823 60.5789L181.889 60.2494Z" fill="#186389"/>
<g style="mix-blend-mode:multiply" opacity="0.4">
<path d="M193.99 59.0634C193.903 58.8549 193.858 58.6307 193.859 58.4045C193.769 57.9827 193.629 57.5734 193.441 57.1855C193.036 56.2564 192.516 55.382 191.893 54.5828C190.856 53.2821 189.394 52.3879 187.764 52.0569C186.666 51.7824 184.941 51.42 183.931 52.0569C183.406 52.4236 182.921 52.8431 182.481 53.3089C182.965 53.0453 183.239 52.4633 183.58 52.046C183.917 51.6102 184.33 51.2382 184.799 50.9478C185.911 50.3174 187.178 50.0129 188.456 50.0692C189.769 50.1003 191.077 50.2473 192.365 50.5085C193.46 50.5607 194.509 50.962 195.358 51.6537C196.208 52.3454 196.814 53.2911 197.087 54.3522C197.311 55.141 197.411 55.9597 197.384 56.7792C197.384 57.6028 197.252 58.3935 197.186 59.1952C197.233 59.7295 197.169 60.2677 196.999 60.7766C196.692 60.6338 196.461 60.2275 196.154 60.0298C195.847 59.8304 195.519 59.6647 195.176 59.5356C194.968 59.4587 194.001 59.0744 193.903 59.1732L193.99 59.0634Z" fill="#022D42"/>
</g>
<path d="M181.724 61.095C181.954 60.7057 182.219 60.3381 182.515 59.9969C182.882 59.6211 183.334 59.3387 183.833 59.1732C184.866 58.8224 185.948 58.6371 187.04 58.6241C189.45 58.4214 191.876 58.7359 194.156 59.5466C194.958 59.8497 195.674 60.3435 196.242 60.9852C196.479 61.2283 196.659 61.5208 196.769 61.8418C196.857 62.1383 196.835 62.4458 196.923 62.7204C197.692 62.1932 197.582 60.6558 197.11 59.9749C196.802 59.5137 196.737 59.5027 196.429 59.0524C195.829 58.3863 195.075 57.8773 194.233 57.5699C193.075 57.0353 191.847 56.6656 190.587 56.4717C189.282 56.3016 187.96 56.3016 186.655 56.4717C185.315 56.6254 182.943 57.46 182.12 58.5582C181.806 58.9955 181.609 59.5059 181.549 60.0408C181.549 60.2934 181.549 61.139 181.867 61.139L181.724 61.095Z" fill="#267DA8"/>
<path d="M189.225 68.3759C188.765 68.3303 188.325 68.1636 187.951 67.8927C187.441 67.5518 187.056 67.0547 186.852 66.476C186.608 65.8293 186.505 65.1373 186.553 64.4473C186.6 63.7574 186.796 63.0858 187.127 62.4786C188.434 60.3482 191.443 60.9082 192.618 62.885C193.007 63.5073 193.177 64.2416 193.101 64.9715C192.972 65.5108 192.792 66.0366 192.563 66.5419C192.967 66.0084 193.23 65.3825 193.331 64.7212C193.431 64.0598 193.365 63.3839 193.138 62.7546C192.911 62.1253 192.531 61.5626 192.032 61.1174C191.532 60.6723 190.93 60.3588 190.279 60.2054C188.357 59.8979 185.754 60.6007 184.788 62.4018C183.953 63.8733 184.788 65.905 185.886 67.0142C186.633 67.7939 188.082 68.8591 189.181 68.299C189.202 68.3811 189.205 68.4669 189.19 68.5504C189.175 68.6338 189.142 68.7129 189.093 68.7822L189.225 68.3759Z" fill="#490303"/>
<path d="M171.027 198.346C171.027 183.202 157.794 179.139 148.361 168.113C144.451 163.556 145.758 144.469 145.758 144.469H137.203C137.203 144.469 137.324 165.532 133.415 170.09C123.981 181.072 111.934 183.202 111.934 198.346C111.858 202.277 112.567 206.184 114.019 209.838C115.471 213.491 117.637 216.819 120.39 219.626C123.143 222.433 126.428 224.662 130.054 226.184C133.679 227.706 137.571 228.49 141.503 228.49C145.434 228.49 149.327 227.706 152.952 226.184C156.577 224.662 159.862 222.433 162.615 219.626C165.368 216.819 167.534 213.491 168.986 209.838C170.438 206.184 171.147 202.277 171.071 198.346H171.027ZM127.978 213.249C127.909 213.711 127.675 214.133 127.32 214.438C126.966 214.743 126.513 214.911 126.046 214.911C125.578 214.911 125.126 214.743 124.771 214.438C124.416 214.133 124.183 213.711 124.113 213.249V186.892C124.183 186.43 124.416 186.008 124.771 185.702C125.126 185.397 125.578 185.23 126.046 185.23C126.513 185.23 126.966 185.397 127.32 185.702C127.675 186.008 127.909 186.43 127.978 186.892V213.249ZM135.567 217.641C135.636 217.962 135.633 218.294 135.557 218.613C135.481 218.931 135.335 219.229 135.129 219.484C134.923 219.739 134.663 219.945 134.367 220.086C134.071 220.228 133.748 220.301 133.42 220.301C133.092 220.301 132.769 220.228 132.473 220.086C132.177 219.945 131.917 219.739 131.711 219.484C131.505 219.229 131.359 218.931 131.283 218.613C131.207 218.294 131.204 217.962 131.273 217.641V183.74C131.204 183.42 131.207 183.088 131.283 182.769C131.359 182.45 131.505 182.153 131.711 181.898C131.917 181.643 132.177 181.437 132.473 181.295C132.769 181.154 133.092 181.081 133.42 181.081C133.748 181.081 134.071 181.154 134.367 181.295C134.663 181.437 134.923 181.643 135.129 181.898C135.335 182.153 135.481 182.45 135.557 182.769C135.633 183.088 135.636 183.42 135.567 183.74V217.641ZM144.188 219.3C144.211 219.668 144.159 220.038 144.034 220.385C143.909 220.733 143.715 221.051 143.462 221.32C143.209 221.59 142.904 221.804 142.565 221.951C142.226 222.098 141.861 222.173 141.492 222.173C141.122 222.173 140.757 222.098 140.418 221.951C140.079 221.804 139.774 221.59 139.521 221.32C139.269 221.051 139.074 220.733 138.949 220.385C138.824 220.038 138.772 219.668 138.796 219.3V181.775C138.772 181.406 138.824 181.037 138.949 180.689C139.074 180.342 139.269 180.023 139.521 179.754C139.774 179.485 140.079 179.27 140.418 179.123C140.757 178.977 141.122 178.901 141.492 178.901C141.861 178.901 142.226 178.977 142.565 179.123C142.904 179.27 143.209 179.485 143.462 179.754C143.715 180.023 143.909 180.342 144.034 180.689C144.159 181.037 144.211 181.406 144.188 181.775V219.3ZM151.622 217.685C151.692 218.006 151.688 218.338 151.612 218.656C151.537 218.975 151.39 219.273 151.185 219.528C150.979 219.783 150.718 219.989 150.423 220.13C150.127 220.272 149.803 220.345 149.475 220.345C149.148 220.345 148.824 220.272 148.528 220.13C148.233 219.989 147.972 219.783 147.766 219.528C147.561 219.273 147.414 218.975 147.339 218.656C147.263 218.338 147.259 218.006 147.329 217.685V183.795C147.259 183.475 147.263 183.143 147.339 182.824C147.414 182.505 147.561 182.207 147.766 181.952C147.972 181.697 148.233 181.492 148.528 181.35C148.824 181.209 149.148 181.136 149.475 181.136C149.803 181.136 150.127 181.209 150.423 181.35C150.718 181.492 150.979 181.697 151.185 181.952C151.39 182.207 151.537 182.505 151.612 182.824C151.688 183.143 151.692 183.475 151.622 183.795V217.685ZM157.86 213.37C157.76 213.812 157.512 214.207 157.158 214.489C156.804 214.772 156.364 214.927 155.911 214.927C155.458 214.927 155.018 214.772 154.663 214.489C154.309 214.207 154.062 213.812 153.962 213.37V188.891C154.062 188.449 154.309 188.054 154.663 187.771C155.018 187.488 155.458 187.334 155.911 187.334C156.364 187.334 156.804 187.488 157.158 187.771C157.512 188.054 157.76 188.449 157.86 188.891V213.37Z" fill="#022844"/>
<path d="M166.064 200.905C166.064 196.304 163.78 193.635 161.429 189.923C159.628 187.068 157.948 184.026 155.565 181.654C151.667 177.766 145.923 175.866 142.639 171.419C140.311 168.245 141.278 163.062 141.278 159.163C141.278 155.264 141.278 151.586 141.278 147.808C141.278 145.974 141.333 144.733 143.211 144.052C145.813 143.108 145.648 145.018 145.407 147.017C144.623 151.316 144.431 155.702 144.836 160.053C145.506 165.247 147.636 168.772 150.909 172.759C154.181 176.745 158.948 178.766 162.572 182.236C165.782 185.372 167.919 189.442 168.677 193.866C168.974 195.974 168.392 200.872 166.097 201.729L166.064 200.905Z" fill="#073551"/>
<path d="M121.609 218.762C120.137 217.202 118.83 215.495 117.71 213.666C116.882 211.972 116.238 210.193 115.789 208.362C114.685 204.458 114.232 200.399 114.449 196.348C114.56 194.296 115.091 192.289 116.008 190.45C116.7 189.187 118.106 186.651 119.786 186.607C122.872 186.53 121.741 197.039 121.741 199.203C121.741 203.881 120.928 210.053 122.74 214.457C123.157 215.467 124.936 216.906 124.585 218.103C124.234 219.3 122.202 218.838 121.741 218.882L121.609 218.762Z" fill="#073551"/>
<path d="M117.919 214.16C117.919 212.502 116.535 210.163 116.129 208.417C115.666 206.293 115.394 204.132 115.316 201.959C115.217 199.884 114.921 196.974 116.359 195.261C118.622 192.559 119.226 197.007 119.226 198.676C119.226 201.707 118.775 205.166 119.445 208.12C119.896 210.075 121.104 212.041 121.17 214.029C121.301 217.521 118.182 214.358 117.666 213.238L117.919 214.16Z" fill="#186389"/>
<path d="M158.256 181.972C158.08 179.952 155.06 178.491 153.566 177.58C151.503 176.361 149.555 174.957 147.746 173.385C144.836 170.837 144.396 166.598 144.067 162.908C143.738 159.218 143.463 155.221 143.419 151.388C143.419 149.609 142.826 145.688 145.088 145.084C145.967 148.379 145.242 152.903 145.242 156.385C145.24 160.05 145.765 163.697 146.801 167.213C147.79 170.507 150.217 172.418 152.787 174.428C154.632 175.889 157.498 178.447 158.091 180.918C158.179 181.27 158.19 181.325 158.091 181.544L158.256 181.972Z" fill="#186389"/>
<path d="M149.064 139.143V54.0555C149.064 51.6944 146.45 49.7836 143.211 49.7836H139.971C136.731 49.7836 134.118 51.6944 134.118 54.0555V139.143C134.118 141.504 136.731 143.415 139.971 143.415H143.211C146.417 143.371 149.064 141.46 149.064 139.143ZM145.769 63.2144C145.769 66.2893 142.178 67.695 141.377 67.695C138.95 67.695 136.984 65.0264 136.984 63.2144C136.984 61.4024 138.95 59.9198 141.377 59.9198C143.804 59.9198 145.704 61.3585 145.704 63.1705L145.769 63.2144Z" fill="#E50505"/>
<path d="M150.162 141.109C150.162 138.693 146.187 136.716 141.278 136.716C136.369 136.716 132.405 138.671 132.405 141.109C132.405 143.547 136.38 145.502 141.278 145.502C146.176 145.502 150.162 143.536 150.162 141.109Z" fill="#022844"/>
<path d="M142.2 136.376C139.422 135.387 139.268 131.906 138.905 129.929C138.334 126.481 136.511 79.4126 136.511 69.1995C136.511 64.3345 135.754 56.9107 140.739 53.089C131.668 51.9909 135.249 119.551 135.534 125.438C135.579 127.567 135.499 129.698 135.292 131.818C135.227 132.85 135.402 133.916 135.292 134.959C135.183 136.002 134.688 136.694 134.699 137.606C135.637 136.907 136.699 136.392 137.829 136.09C139.367 135.837 140.696 136.42 142.112 136.398C141.947 136.75 141.679 137.045 141.343 137.243L142.2 136.376Z" fill="#F72B2B"/>
<g style="mix-blend-mode:multiply" opacity="0.5">
<path d="M147.966 62.4457C147.768 59.1511 149.064 51.3759 142.958 51.0465C138.302 50.8049 135.765 53.0012 135.15 55.9993C133.942 61.9844 134.249 68.8481 134.678 74.987C138.763 75.4592 140.871 78.611 141.728 81.3235C143.23 86.3257 144.147 91.4849 144.463 96.6981C145.451 110.272 146.34 123.911 146.34 137.573H145.769C146.074 137.709 146.414 137.747 146.741 137.68C147.068 137.613 147.366 137.445 147.592 137.199C148.207 136.606 147.856 135.234 147.845 134.531V118.739C147.856 100.048 149.064 81.2247 147.966 62.4457ZM145.692 62.841C145.692 62.9508 145.692 63.0716 145.692 63.1815C145.758 62.6104 145.44 65.4437 145.385 65.4876C144.785 66.1056 144.051 66.5775 143.24 66.8669C142.429 67.1563 141.562 67.2555 140.707 67.1569C138.862 66.9592 136.863 64.5871 137.017 63.3023C137.127 62.5853 137.439 61.9148 137.918 61.3699C138.397 60.8251 139.022 60.4286 139.718 60.2273C140.535 59.9135 141.418 59.8123 142.284 59.9334C143.151 60.0544 143.972 60.3936 144.671 60.9192C144.929 61.132 145.151 61.384 145.33 61.666V61.7209L145.407 61.8417C145.562 62.1524 145.644 62.494 145.649 62.841H145.692Z" fill="#B20808"/>
</g>
<path d="M136.83 145.161C135.402 144.304 133.535 143.217 133.426 141.317C133.316 138.89 137.225 137.551 139.169 137.781C139.07 138.506 138.521 139.231 138.708 139.978C138.982 141.153 140.399 141.592 141.355 142.075C142.31 142.558 145.297 143.503 143.76 144.711C142.222 145.919 138.269 145.809 136.83 144.919V145.161Z" fill="#073551"/>
<path d="M136.149 144.634C135.183 143.777 133.448 142.822 133.81 141.186C133.876 140.867 133.986 140.406 134.392 140.318C134.985 140.175 134.81 140.516 135.095 140.79C135.697 141.589 136.553 142.158 137.522 142.405C138.401 142.613 139.718 142.712 140.136 143.744C140.388 144.469 140.048 144.842 139.378 145.106C137.972 145.622 136.841 144.766 135.765 144.337L136.149 144.634Z" fill="#186389"/>
<path d="M145.231 144.469C146.944 143.492 146.505 141.175 145.517 139.945C144.88 139.132 143.32 137.617 142.332 137.573C144.803 137.573 148.921 137.935 149.514 141.021C149.964 143.415 147.153 144.777 145.121 144.568L145.231 144.469Z" fill="#186389"/>
<path d="M134.172 59.3489C135.611 57.482 140.366 57.482 142.958 57.6577C145.791 57.8554 147.164 58.9865 149.36 60.0737C149.767 55.5601 150.459 49.6519 142.771 49.0918C139.411 48.8502 135.809 49.0918 134.612 51.5518C133.415 54.0117 133.887 55.8347 134.161 59.3379C134.227 59.2061 134.161 59.4477 134.161 59.3379C134.178 59.2103 134.178 59.0811 134.161 58.9535C134.161 58.9535 133.799 59.4807 134.172 59.3489Z" fill="#073551"/>
<path d="M134.041 59.272C134.041 58.2397 134.041 57.2074 134.041 56.1642C133.975 55.2616 134.019 54.3544 134.173 53.4626C134.645 51.5627 136.215 49.5091 138.357 49.575C138.291 49.7837 138.027 50.0143 137.906 50.223C137.661 50.6301 137.515 51.0889 137.478 51.5627C137.401 52.5826 137.401 53.6068 137.478 54.6267C137.505 55.2396 137.583 55.8493 137.709 56.4497C137.826 56.8035 137.878 57.1755 137.862 57.5479C137.077 57.6356 136.324 57.9105 135.666 58.3495C135.161 58.657 134.227 59.0634 133.975 59.6234L134.041 59.272Z" fill="#186389"/>
<g style="mix-blend-mode:multiply" opacity="0.4">
<path d="M146.143 58.0969C146.046 57.8908 145.998 57.6656 146 57.438C145.916 57.015 145.775 56.605 145.583 56.219C145.194 55.2979 144.688 54.4305 144.078 53.6383C143.043 52.3354 141.58 51.4407 139.949 51.1125C138.851 50.8379 137.138 50.4645 136.127 51.1125C135.604 51.4855 135.115 51.9045 134.667 52.3644C135.15 52.1118 135.435 51.5188 135.765 51.1125C136.105 50.6825 136.513 50.3115 136.973 50.0143C138.083 49.3784 139.351 49.07 140.63 49.1247C141.944 49.154 143.253 49.3047 144.539 49.575C145.868 49.717 147.112 50.2965 148.076 51.2223C148.619 51.8657 149.027 52.613 149.273 53.4187C149.461 54.1832 149.535 54.9715 149.492 55.7578C149.492 56.5705 149.361 57.3612 149.295 58.1738C149.295 58.6241 149.295 59.3928 149.097 59.7662C148.8 59.6124 148.559 59.2061 148.262 58.9975C147.953 58.7973 147.622 58.635 147.274 58.5142C147.065 58.4374 146.099 58.053 146.011 58.1518L146.143 58.0969Z" fill="#022D42"/>
</g>
<path d="M133.876 60.1286C134.104 59.7413 134.365 59.3739 134.655 59.0304C135.032 58.6641 135.486 58.3865 135.984 58.2177C137.013 57.8659 138.092 57.6805 139.18 57.6686C141.59 57.4672 144.015 57.7778 146.296 58.5801C147.098 58.8887 147.814 59.386 148.383 60.0298C148.622 60.2707 148.803 60.5639 148.91 60.8863C148.998 61.1719 148.976 61.4794 149.075 61.7649C149.843 61.2378 149.723 59.7003 149.261 59.0194C148.943 58.5582 148.888 58.5362 148.58 58.0969C147.976 57.4358 147.223 56.9277 146.384 56.6144C145.229 56.0813 144.006 55.7117 142.749 55.5162C141.44 55.3462 140.115 55.3462 138.807 55.5162C137.467 55.67 135.106 56.5046 134.282 57.6028C133.961 58.0372 133.76 58.5486 133.7 59.0853C133.7 59.3379 133.7 60.1835 134.029 60.1835L133.876 60.1286Z" fill="#267DA8"/>
<path d="M141.377 67.4096C140.911 67.3664 140.466 67.1954 140.092 66.9154C139.582 66.5797 139.196 66.0858 138.994 65.5097C138.747 64.8638 138.643 64.1721 138.688 63.4822C138.734 62.7923 138.928 62.1203 139.257 61.5123C140.564 59.3708 143.573 59.9309 144.748 61.9077C145.14 62.533 145.31 63.2716 145.231 64.0052C145.102 64.5445 144.922 65.0703 144.693 65.5756C145.097 65.0428 145.361 64.4178 145.462 63.7571C145.563 63.0964 145.498 62.421 145.272 61.7919C145.047 61.1627 144.668 60.5999 144.17 60.1541C143.672 59.7084 143.07 59.3939 142.42 59.2391C140.498 58.9316 137.896 59.6344 136.929 61.4354C136.084 62.907 136.929 64.9387 138.027 66.0478C138.763 66.8166 140.224 67.8818 141.322 67.3327C141.343 67.4148 141.347 67.5006 141.331 67.584C141.316 67.6675 141.283 67.7466 141.234 67.8159L141.377 67.4096Z" fill="#490303"/>
<path d="M88.8613 63.0497C88.8397 63.5532 88.6707 64.0392 88.375 64.4473C88.0794 64.8555 87.6703 65.1677 87.1987 65.3451C86.727 65.5225 86.2135 65.5573 85.7222 65.4452C85.2309 65.3331 84.7834 65.079 84.4354 64.7146C84.0873 64.3501 83.8542 63.8914 83.7648 63.3954C83.6755 62.8995 83.7339 62.3882 83.9329 61.9252C84.1319 61.4622 84.4626 61.0679 84.884 60.7914C85.3053 60.5149 85.7986 60.3684 86.3025 60.3701C86.9968 60.3874 87.6558 60.6791 88.1354 61.1813C88.615 61.6836 88.876 62.3554 88.8613 63.0497Z" fill="#140C00"/>
<path d="M144.671 63.0497C144.65 63.5532 144.481 64.0392 144.185 64.4473C143.889 64.8555 143.48 65.1677 143.009 65.3451C142.537 65.5225 142.024 65.5573 141.532 65.4452C141.041 65.3331 140.593 65.079 140.245 64.7146C139.897 64.3501 139.664 63.8914 139.575 63.3954C139.486 62.8995 139.544 62.3882 139.743 61.9252C139.942 61.4622 140.273 61.0679 140.694 60.7914C141.115 60.5149 141.609 60.3684 142.113 60.3701C142.457 60.3773 142.796 60.4523 143.111 60.591C143.426 60.7296 143.711 60.9292 143.949 61.1782C144.187 61.4272 144.373 61.7207 144.497 62.0419C144.621 62.363 144.68 62.7055 144.671 63.0497Z" fill="#140C00"/>
<path d="M191.97 62.6984C191.951 63.2024 191.783 63.6896 191.489 64.0993C191.195 64.5089 190.786 64.8228 190.315 65.0019C189.843 65.181 189.329 65.2173 188.837 65.1064C188.345 64.9955 187.897 64.7422 187.547 64.3781C187.198 64.014 186.964 63.5552 186.874 63.0589C186.784 62.5626 186.842 62.0507 187.04 61.5871C187.239 61.1235 187.57 60.7286 187.992 60.4516C188.413 60.1747 188.907 60.028 189.411 60.0298C189.755 60.0369 190.093 60.1116 190.407 60.2496C190.722 60.3876 191.006 60.5862 191.244 60.834C191.481 61.0818 191.668 61.374 191.792 61.6939C191.917 62.0138 191.977 62.3551 191.97 62.6984Z" fill="#140C00"/>
</svg>
