<svg xmlns="http://www.w3.org/2000/svg" viewBox="0 0 143.66 146.37">
  <defs>
    <style>
      .cls-1 {
        isolation: isolate;
      }

      .cls-2 {
        fill: #d57e59;
      }

      .cls-3 {
        fill: #97593f;
      }

      .cls-4 {
        fill: #683e2b;
      }

      .cls-5 {
        fill: #a76345;
      }

      .cls-6 {
        fill: #b66c4c;
      }

      .cls-7 {
        fill: #e68d5c;
      }

      .cls-8 {
        opacity: 0.51;
        mix-blend-mode: multiply;
      }

      .cls-9 {
        fill: #999;
      }
    </style>
  </defs>
  <g class="cls-1">
    <g id="Layer_1" data-name="Layer 1">
      <g>
        <g>
          <path class="cls-2" d="M209.29,256.21h0a4,4,0,0,1-2.19,1.73,7.35,7.35,0,0,1-5.21-1.74c-1.27-1.1-2-2.78-.83-4.25a.91.91,0,0,1,.17-.17c1.16-1.2,3-.37,4,.78a.62.62,0,0,1-.46,1.07,2.08,2.08,0,0,1-1.12-.21,1.77,1.77,0,0,0-.21.32,1.46,1.46,0,0,0,0,1.16,2.68,2.68,0,0,0,1.64,1.18c1.31.26,2.07-1.78,2.39-2.67a.37.37,0,0,1,.14-.22,53.79,53.79,0,0,0-4-5c-.41-.47-.86-.95-1.31-1.4-1.13-1.19-2.3-2.34-3.41-3.41a3.9,3.9,0,0,0-3,4.22,4,4,0,0,0,.57,1.44l.23.33s.1-.07.2-.1a2.12,2.12,0,0,0,.81-1c.16-.36,0-.78.31-.62-.23-.13-1.17-.77-.67-1.08s1.39.1,1.85.33a2.13,2.13,0,0,1,1.22,2.8v0a2.47,2.47,0,0,1-1,1c-1.73,1-3.89,0-5.08-1.41a4.46,4.46,0,0,1-.17-5c.89-1.63,1.45-1.75,2.31-3.15q.66-.9,1.26-1.8c2.83,2.31,6.73,4,9.38,6.62,2,2,3.1,4.76,4.56,7.19A32.88,32.88,0,0,1,209.29,256.21Z" transform="translate(-167.03 -130.24)"/>
          <path class="cls-3" d="M211.56,253.14C210.1,250.71,209,247.9,207,246c-2.65-2.6-6.55-4.31-9.38-6.62,4.18-6,7.77-12.3,11.89-18.45,7.2-10.83,16.44-20.47,23.38-31.52s10.92-23.12,19.18-33.13c8.47-9.82,19.33-17.34,28.78-26,4.48,2.8,8.87,9,12.45,15-9.54,7.56-18.52,13.57-25.61,24.51-8,11.87-14.47,25-21.91,37.74-5.66,9.93-16.4,15-22.85,24.36C218.66,238,215.94,246.48,211.56,253.14Z" transform="translate(-167.03 -130.24)"/>
          <path class="cls-4" d="M200.27,249.73a2.13,2.13,0,0,0-1.22-2.8c-.46-.23-1.32-.68-1.85-.33s.44,1,.67,1.08c-.3-.16-.15.26-.31.62a2.12,2.12,0,0,1-.81,1c-.1,0-.17.05-.2.1l-.23-.33a4,4,0,0,1-.57-1.44,3.9,3.9,0,0,1,3-4.22c1.11,1.07,2.28,2.22,3.41,3.41Z" transform="translate(-167.03 -130.24)"/>
          <path class="cls-4" d="M205,256.07a2.68,2.68,0,0,1-1.64-1.18,1.46,1.46,0,0,1,0-1.16,1.77,1.77,0,0,1,.21-.32,2.08,2.08,0,0,0,1.12.21.62.62,0,0,0,.46-1.07c-.95-1.15-2.81-2-4-.78l2.28-3.54a53.79,53.79,0,0,1,4,5,.37.37,0,0,0-.14.22C207.07,254.29,206.31,256.33,205,256.07Z" transform="translate(-167.03 -130.24)"/>
        </g>
        <g>
          <path class="cls-2" d="M231,271.56,229.72,273l0,0c-.36.41-.7.81-1.06,1.18-1.38,1.5-2.68,2.5-4.27,2.38a3.88,3.88,0,0,1-3.67-3.45,2.86,2.86,0,0,1,.26-1.67l.28-.48a2,2,0,0,1,1.18-.89c1.6-.36,3.46.4,3.6,2.15,0,.33-1.27.27-2.12-.09a2.33,2.33,0,0,0-.27,1.81c.15.46,0,.44.46.64,0,0,.41.21.25.05,0,0,.41.17.58,0a8.55,8.55,0,0,0,2.48-3.27,11.05,11.05,0,0,0-2.41-3.2,9.4,9.4,0,0,0-1.52-1.09,8.6,8.6,0,0,0-.91-.46,21.13,21.13,0,0,0-4.55-1.26c-.54.89-1.37,2-1,2.62a2.51,2.51,0,0,0,.4.54A1,1,0,0,1,218,268a1.92,1.92,0,0,1,2.05.56,1.77,1.77,0,0,1,.5,1.65v0a1.4,1.4,0,0,1-.94.82,4.57,4.57,0,0,1-3.54-.58,3.9,3.9,0,0,1-1.89-2.67,6.08,6.08,0,0,1,.56-3l.51-.89c.29-.5.58-1,.89-1.49a16.72,16.72,0,0,1,8.72,2.51,21.92,21.92,0,0,1,5.28,5.29A7.18,7.18,0,0,1,231,271.56Z" transform="translate(-167.03 -130.24)"/>
          <path class="cls-5" d="M298.23,163.48c-5.79,6.63-9.72,14.73-14.07,22.22l-26.09,44.85c-5.67,9.77-10.83,20.62-17.5,29.43-3,4.13-6.33,7.82-9.59,11.58a7.18,7.18,0,0,0-.87-1.38,21.92,21.92,0,0,0-5.28-5.29,16.72,16.72,0,0,0-8.72-2.51c13.21-22.32,27.94-43.44,41-65.87,12.6-21.67,21.29-45.61,39.46-63.37,3.57,2.72,5.75,7.85,8.71,11a14.8,14.8,0,0,0,5.43,3.6C307,153.26,302.6,158.1,298.23,163.48Z" transform="translate(-167.03 -130.24)"/>
          <path class="cls-4" d="M222.56,266.69l-2,3.5a1.77,1.77,0,0,0-.5-1.65A1.92,1.92,0,0,0,218,268a1,1,0,0,0-.61.61,2.51,2.51,0,0,1-.4-.54c-.33-.58.5-1.73,1-2.62A21.13,21.13,0,0,1,222.56,266.69Z" transform="translate(-167.03 -130.24)"/>
          <path class="cls-4" d="M224.92,274.71c-.17.13-.58,0-.58,0,.16.16-.25-.05-.25-.05-.46-.2-.31-.18-.46-.64a2.33,2.33,0,0,1,.27-1.81c.85.36,2.14.42,2.12.09-.14-1.75-2-2.51-3.6-2.15a2,2,0,0,0-1.18.89l2.23-3.85a9.4,9.4,0,0,1,1.52,1.09,11.05,11.05,0,0,1,2.41,3.2A8.55,8.55,0,0,1,224.92,274.71Z" transform="translate(-167.03 -130.24)"/>
          <g>
            <path class="cls-6" d="M272.93,191c-6.34-3.56-13.15-7.72-20.22-10.77a53,53,0,0,0,24.69-18.89c.12-.18.06-.34-.17-.51.27-.33-.11-.63-1.69-.8a71.58,71.58,0,0,0-29.2,3c4.78-8.47,7-17.76,9.08-27.27.41-1.85-6.65-.94-7.46-.48-10.66,6.1-20.32,14.14-25.42,24.48a51.57,51.57,0,0,0-24-25.28c-1.39-.71-7.18-1.13-6.78,1.78,1.84,13.53,7.38,26.38,16.45,36.21a48.37,48.37,0,0,0-14-.09c-11.38,1.54-20,10.14-27,18.54-1.13,1.37,2.24,2.1,2.84,2.19a83.89,83.89,0,0,0,33-1,61.16,61.16,0,0,0-6.42,7.31c-6.7,9-7.49,20-8.48,30.78-.26,2.75,5.57,2.19,6.85,1.38a88,88,0,0,0,22-19.31,37.48,37.48,0,0,0,4.85-8,41.65,41.65,0,0,0,22.85,26.35c1.07.5,7.39,1.28,7.43-.81.22-13.07-4.43-23.91-11.38-33.67,10.44,4.78,21.81,5.42,32.81-2.72C274.75,192.47,273.78,191.47,272.93,191Zm-30.78-22.13c.31-.18.61-.33.92-.5A51.31,51.31,0,0,1,268.88,162c-5.29,7-12.55,13.17-20.76,16.43a41.38,41.38,0,0,0-13.65-2.54A46.76,46.76,0,0,0,242.15,168.85Zm-41-25.81c9.28,7.44,15,18,17.76,29.65.11.46.21.89.31,1.35a4.72,4.72,0,0,1-.41-.37C209.83,165.7,203.93,154.76,201.11,143Zm-24.73,47c5.07-5.9,10.69-11.16,18.23-13.74,6.69-2.32,13.88-.55,20.27,2.28l0,0c1,.75,2,1.49,3,2.2C205.51,189.09,191.05,191.62,176.38,190.06Zm35.46,17.44c-3.41,6.23-9.07,11.53-15,15.93,1.07-8.79,3-17,8.59-24.49a51.21,51.21,0,0,1,13.54-12.1C217.36,194,215.44,200.9,211.84,207.5ZM227,173.11a.8.8,0,0,0-.22.17c0-.31,0-.61.07-.89,1.2-12.69,9-22.58,19.14-30.19-2,8.07-4.38,15.88-9,23-.7,1-1.45,1.89-2.23,2.77A55.26,55.26,0,0,0,227,173.11Zm17,51.41c-11.24-8.44-15.81-21.05-16.73-35.1C236,199.64,242.76,210.81,244,224.52Zm9.2-29.14h-.06a24.65,24.65,0,0,1-8.38-2.62l-.53-.25a59.26,59.26,0,0,1-11.38-8.19l-.11-.11c-.3-.32-.57-.63-.83-.94a12.86,12.86,0,0,1-1.84-2.85,21.54,21.54,0,0,1,10.55.08,31.3,31.3,0,0,1,5.28,1.7l0,0c.38.15.75.31,1.12.48s.5.2.77.31l1.44.66c1.1.51,2.21,1,3.27,1.64.55.27,1.1.55,1.62.86l1.59.88c.53.29,1,.6,1.53.89,1.53.88,3,1.75,4.27,2.54l2.48,1.48c.37.24.75.45,1.09.66C261.73,195.34,257.52,196,253.21,195.38Z" transform="translate(-167.03 -130.24)"/>
            <path class="cls-7" d="M244,224.52c-11.24-8.44-15.81-21.05-16.73-35.1C236,199.64,242.76,210.81,244,224.52Z" transform="translate(-167.03 -130.24)"/>
            <path class="cls-7" d="M211.84,207.5c-3.41,6.23-9.07,11.53-15,15.93,1.07-8.79,3-17,8.59-24.49a51.21,51.21,0,0,1,13.54-12.1C217.36,194,215.44,200.9,211.84,207.5Z" transform="translate(-167.03 -130.24)"/>
            <path class="cls-7" d="M217.92,180.82c-12.41,8.27-26.87,10.8-41.54,9.24,5.07-5.9,10.69-11.16,18.23-13.74,6.69-2.32,13.88-.55,20.27,2.28l0,0C215.87,179.37,216.88,180.11,217.92,180.82Z" transform="translate(-167.03 -130.24)"/>
            <path class="cls-7" d="M219.18,174a4.72,4.72,0,0,1-.41-.37c-8.94-8-14.84-18.91-17.66-30.63,9.28,7.44,15,18,17.76,29.65C219,173.15,219.08,173.58,219.18,174Z" transform="translate(-167.03 -130.24)"/>
            <path class="cls-7" d="M246,142.2c-2,8.07-4.38,15.88-9,23-.7,1-1.45,1.89-2.23,2.77a55.26,55.26,0,0,0-7.79,5.15c0-.24-.11-.48-.15-.72C228.05,159.7,235.82,149.81,246,142.2Z" transform="translate(-167.03 -130.24)"/>
            <path class="cls-7" d="M268.88,162c-5.29,7-12.55,13.17-20.76,16.43a41.38,41.38,0,0,0-13.65-2.54,46.76,46.76,0,0,0,7.68-7c.31-.18.61-.33.92-.5A51.31,51.31,0,0,1,268.88,162Z" transform="translate(-167.03 -130.24)"/>
            <path class="cls-7" d="M265.11,192.57c-3.38,2.77-7.59,3.43-11.9,2.81h-.06a29.7,29.7,0,0,1-8.38-2.62l-.53-.25a59.26,59.26,0,0,1-11.38-8.19l-.11-.11c-.3-.32-.57-.63-.83-.94a12.86,12.86,0,0,1-1.84-2.85,21.54,21.54,0,0,1,10.55.08,31.3,31.3,0,0,1,5.28,1.7,11.82,11.82,0,0,1,1.14.46c.24.08.5.2.77.31l1.44.66c1.1.53,2.2,1.07,3.27,1.64.55.29,1.1.57,1.62.86l1.59.88c.53.29,1,.6,1.53.89,1.53.88,3,1.75,4.27,2.54l2.48,1.48C264.39,192.15,264.77,192.36,265.11,192.57Z" transform="translate(-167.03 -130.24)"/>
          </g>
        </g>
        <g class="cls-8">
          <path class="cls-9" d="M265.15,173.55c-2,3.21-4,6.49-5.9,9.82-2.16-1.14-4.35-2.2-6.57-3.16A52,52,0,0,0,265.15,173.55Z" transform="translate(-167.03 -130.24)"/>
        </g>
        <g class="cls-8">
          <path class="cls-9" d="M250.48,199.09c-1.25,2.26-2.51,4.51-3.81,6.75a72.1,72.1,0,0,0-5.92-9.8A37.85,37.85,0,0,0,250.48,199.09Z" transform="translate(-167.03 -130.24)"/>
        </g>
        <g class="cls-8">
          <path class="cls-9" d="M232.3,221.88c-1.81,1.6-3.61,3.24-5.28,5a22.88,22.88,0,0,1-5.39-3.63,9.14,9.14,0,0,1-2.1-2.71c-3.79,4.49-9.82,6.16-15.22,8.42,1.67-2.68,3.37-5.37,5.16-8,.36-.54.72-1.08,1.1-1.62l0,0A74.8,74.8,0,0,0,217,212.2a36.14,36.14,0,0,0,4.47-7.24v0l.46-.58A41.79,41.79,0,0,0,232.3,221.88Z" transform="translate(-167.03 -130.24)"/>
        </g>
        <g class="cls-8">
          <path class="cls-9" d="M290,140.16a113.64,113.64,0,0,0-8.76,12.1c-1.14,1.75-2.24,3.53-3.3,5.32v0c-.83.76-1.67,1.56-2.47,2.4-.76-.08-1.52-.14-2.3-.18a71.28,71.28,0,0,0-25.8,2.85,66,66,0,0,1,4.61-6.44c.36-.42.7-.82,1.08-1.22a0,0,0,0,0,0,0c5.45-1.94,10.14-3.81,16.28-3.81a63.74,63.74,0,0,1,8,.42,4.94,4.94,0,0,1,.27-.42c3.28-4.49,7.87-9,10.26-14C288.64,138.17,289.36,139.15,290,140.16Z" transform="translate(-167.03 -130.24)"/>
        </g>
        <g class="cls-8">
          <path class="cls-9" d="M267.49,201.79a21.92,21.92,0,0,1-8.56,1.23,42.84,42.84,0,0,1-5.79.06c.74-1.17,1.44-2.37,2.11-3.55a28.85,28.85,0,0,0,16.57-5C274.39,198.06,270.42,200.55,267.49,201.79Z" transform="translate(-167.03 -130.24)"/>
        </g>
        <g class="cls-8">
          <path class="cls-9" d="M251.52,234.62c-2.91.67-5.68-.24-8.44-.9a31.83,31.83,0,0,1-7.28-2.92c.83-1.31,1.67-2.61,2.51-3.93a45.68,45.68,0,0,0,6.39,3.65c1.07.5,7.4,1.28,7.44-.79a50,50,0,0,0-3.47-19.3,8.17,8.17,0,0,0,.58-1c.7,2.08,1.95,3.87,2.53,6,.4,2,1,4,1.4,6a34.76,34.76,0,0,1,.84,6.61C254,230.34,254.36,234,251.52,234.62Z" transform="translate(-167.03 -130.24)"/>
        </g>
      </g>
    </g>
  </g>
</svg>
