<svg id="Layer_1" data-name="Layer 1" xmlns="http://www.w3.org/2000/svg" viewBox="0 0 2597.9 2598.08">
  <defs>
    <style>
      .cls-1 {
        fill: #3f4d50;
      }

      .cls-2 {
        fill: #2f383a;
      }

      .cls-3 {
        fill: #da4643;
      }

      .cls-4 {
        fill: #f39225;
      }

      .cls-5 {
        fill: #e6e6e5;
      }
    </style>
  </defs>
  <path class="cls-1" d="M3764.1,2432.42c0,717.42-581.42,1299-1298.95,1299-717.31,0-1298.94-581.61-1298.94-1299s581.63-1299.05,1298.94-1299.05C3182.68,1133.37,3764.1,1715,3764.1,2432.42Z" transform="translate(-1166.21 -1133.37)"/>
  <g>
    <path class="cls-1" d="M1343.73,3088.17q-5.26-9-10.4-18.07Q1338.46,3079.18,1343.73,3088.17Z" transform="translate(-1166.21 -1133.37)"/>
    <path class="cls-1" d="M1324.94,3055.08c-2.14-3.91-4.23-7.86-6.34-11.8C1320.71,3047.22,1322.8,3051.17,1324.94,3055.08Z" transform="translate(-1166.21 -1133.37)"/>
    <path class="cls-1" d="M1432,3219.7c-3.37-4.42-6.74-8.82-10-13.27C1425.25,3210.88,1428.62,3215.28,1432,3219.7Z" transform="translate(-1166.21 -1133.37)"/>
    <path class="cls-1" d="M1415.86,3198.1q-9-12.26-17.63-24.73Q1406.9,3185.85,1415.86,3198.1Z" transform="translate(-1166.21 -1133.37)"/>
    <path class="cls-1" d="M1391,3163c-2.87-4.21-5.69-8.47-8.52-12.72C1385.31,3154.48,1388.13,3158.74,1391,3163Z" transform="translate(-1166.21 -1133.37)"/>
    <path class="cls-1" d="M1375.23,3139.21q-4.1-6.28-8.11-12.63Q1371.14,3132.93,1375.23,3139.21Z" transform="translate(-1166.21 -1133.37)"/>
    <path class="cls-1" d="M1359.8,3114.86c-2.53-4.1-5.09-8.2-7.58-12.33C1354.71,3106.67,1357.27,3110.76,1359.8,3114.86Z" transform="translate(-1166.21 -1133.37)"/>
    <path class="cls-1" d="M1311.41,3029.65q-3.11-6-6.16-12Q1308.3,3023.65,1311.41,3029.65Z" transform="translate(-1166.21 -1133.37)"/>
    <path class="cls-1" d="M1236.9,2856c-1-2.77-2-5.53-2.89-8.31C1235,2850.43,1235.94,2853.19,1236.9,2856Z" transform="translate(-1166.21 -1133.37)"/>
    <path class="cls-1" d="M1247.72,2886.12c-1.38-3.68-2.75-7.35-4.09-11C1245,2878.77,1246.34,2882.44,1247.72,2886.12Z" transform="translate(-1166.21 -1133.37)"/>
    <path class="cls-1" d="M1258.4,2913.83c-1.52-3.79-3-7.59-4.48-11.4C1255.4,2906.24,1256.88,2910,1258.4,2913.83Z" transform="translate(-1166.21 -1133.37)"/>
    <path class="cls-1" d="M1284.47,2974.52c-1.57-3.4-3.15-6.79-4.69-10.2C1281.32,2967.73,1282.9,2971.12,1284.47,2974.52Z" transform="translate(-1166.21 -1133.37)"/>
    <path class="cls-1" d="M1298.21,3003.44c-1.89-3.85-3.79-7.69-5.64-11.56C1294.42,2995.75,1296.32,2999.59,1298.21,3003.44Z" transform="translate(-1166.21 -1133.37)"/>
    <path class="cls-1" d="M1269.48,2940.77c-1.5-3.53-3-7.09-4.42-10.63C1266.53,2933.68,1268,2937.24,1269.48,2940.77Z" transform="translate(-1166.21 -1133.37)"/>
    <path class="cls-1" d="M1834.18,3568q-42.36-23.6-82.72-50.2Q1791.81,3544.42,1834.18,3568Z" transform="translate(-1166.21 -1133.37)"/>
    <path class="cls-1" d="M1748,3515.55q-9.12-6.06-18.14-12.26Q1738.86,3509.5,1748,3515.55Z" transform="translate(-1166.21 -1133.37)"/>
    <path class="cls-1" d="M1726,3500.63q-38.82-26.93-75.54-56.53Q1687.17,3473.7,1726,3500.63Z" transform="translate(-1166.21 -1133.37)"/>
    <path class="cls-1" d="M1856.88,3580.39q-10.14-5.4-20.19-10.95Q1846.73,3575,1856.88,3580.39Z" transform="translate(-1166.21 -1133.37)"/>
    <path class="cls-1" d="M1972.14,3634.5q-11-4.52-21.85-9.2Q1961.17,3630,1972.14,3634.5Z" transform="translate(-1166.21 -1133.37)"/>
    <path class="cls-1" d="M1449.25,3241.84q-5.22-6.54-10.36-13.15Q1444,3235.31,1449.25,3241.84Z" transform="translate(-1166.21 -1133.37)"/>
    <path class="cls-1" d="M1646.2,3440.67q-8-6.47-15.79-13.07Q1638.26,3434.2,1646.2,3440.67Z" transform="translate(-1166.21 -1133.37)"/>
    <path class="cls-1" d="M1949.16,3624.81q-45.56-19.76-89.27-42.84Q1903.57,3605,1949.16,3624.81Z" transform="translate(-1166.21 -1133.37)"/>
    <path class="cls-1" d="M1514.34,3317.31q-21.12-22.68-41.15-46.35Q1493.22,3294.62,1514.34,3317.31Z" transform="translate(-1166.21 -1133.37)"/>
    <path class="cls-1" d="M1532.83,3336.78c-4.32-4.46-8.63-8.93-12.88-13.45C1524.2,3327.85,1528.51,3332.32,1532.83,3336.78Z" transform="translate(-1166.21 -1133.37)"/>
    <path class="cls-1" d="M1467,3263.65c-3.67-4.39-7.28-8.83-10.89-13.27C1459.74,3254.82,1463.35,3259.26,1467,3263.65Z" transform="translate(-1166.21 -1133.37)"/>
    <path class="cls-1" d="M1552.32,3356.47q-6.73-6.66-13.36-13.41Q1545.61,3349.81,1552.32,3356.47Z" transform="translate(-1166.21 -1133.37)"/>
    <path class="cls-1" d="M1625.3,3423.28c-5.23-4.44-10.45-8.9-15.61-13.42C1614.85,3414.38,1620.07,3418.84,1625.3,3423.28Z" transform="translate(-1166.21 -1133.37)"/>
    <path class="cls-1" d="M1606.55,3407.07q-25.12-22.16-49.07-45.56Q1581.42,3384.91,1606.55,3407.07Z" transform="translate(-1166.21 -1133.37)"/>
    <path class="cls-1" d="M1192.87,2695.47c-.49-2.37-.93-4.77-1.4-7.15C1191.94,2690.7,1192.38,2693.1,1192.87,2695.47Z" transform="translate(-1166.21 -1133.37)"/>
    <path class="cls-1" d="M1201.1,2732.45c-.66-2.81-1.36-5.6-2-8.42C1199.74,2726.85,1200.44,2729.64,1201.1,2732.45Z" transform="translate(-1166.21 -1133.37)"/>
    <path class="cls-1" d="M1182.17,2636.24q-.84-5.35-1.66-10.71Q1181.32,2630.89,1182.17,2636.24Z" transform="translate(-1166.21 -1133.37)"/>
    <path class="cls-1" d="M1187.23,2666.19c-.63-3.46-1.22-6.94-1.82-10.41C1186,2659.25,1186.6,2662.73,1187.23,2666.19Z" transform="translate(-1166.21 -1133.37)"/>
    <path class="cls-1" d="M1208.85,2763.51c-.94-3.58-1.89-7.17-2.8-10.77C1207,2756.34,1207.91,2759.93,1208.85,2763.51Z" transform="translate(-1166.21 -1133.37)"/>
    <path class="cls-1" d="M1216.8,2792.45c-1-3.6-2-7.22-3-10.83C1214.76,2785.23,1215.76,2788.85,1216.8,2792.45Z" transform="translate(-1166.21 -1133.37)"/>
    <path class="cls-1" d="M1170.29,2535.66c-.27-3.34-.49-6.7-.72-10C1169.8,2529,1170,2532.32,1170.29,2535.66Z" transform="translate(-1166.21 -1133.37)"/>
    <path class="cls-1" d="M1166.89,2472.85c-.1-3.23-.22-6.46-.29-9.7C1166.67,2466.39,1166.79,2469.62,1166.89,2472.85Z" transform="translate(-1166.21 -1133.37)"/>
    <path class="cls-1" d="M1225.25,2820.67c-1-3-1.84-6.07-2.76-9.1C1223.41,2814.6,1224.3,2817.65,1225.25,2820.67Z" transform="translate(-1166.21 -1133.37)"/>
    <path class="cls-1" d="M1177.59,2604.6c-.4-3-.82-6-1.2-9C1176.77,2598.64,1177.19,2601.61,1177.59,2604.6Z" transform="translate(-1166.21 -1133.37)"/>
    <path class="cls-1" d="M1173,2565.85c-.15-1.5-.26-3-.41-4.52C1172.72,2562.83,1172.83,2564.35,1173,2565.85Z" transform="translate(-1166.21 -1133.37)"/>
    <path class="cls-1" d="M1168.25,2504.9c-.19-3.61-.38-7.23-.55-10.85C1167.87,2497.67,1168.06,2501.29,1168.25,2504.9Z" transform="translate(-1166.21 -1133.37)"/>
    <path class="cls-2" d="M1609.69,3409.86c-1-.92-2.09-1.86-3.14-2.79C1607.6,3408,1608.64,3408.94,1609.69,3409.86Z" transform="translate(-1166.21 -1133.37)"/>
    <path class="cls-2" d="M1169.57,2525.62q-.73-10.34-1.32-20.72Q1168.82,2515.3,1169.57,2525.62Z" transform="translate(-1166.21 -1133.37)"/>
    <path class="cls-2" d="M1557.48,3361.51c-1.72-1.68-3.45-3.35-5.16-5C1554,3358.16,1555.76,3359.83,1557.48,3361.51Z" transform="translate(-1166.21 -1133.37)"/>
    <path class="cls-2" d="M1539,3343.06q-3.07-3.12-6.13-6.28Q1535.89,3339.93,1539,3343.06Z" transform="translate(-1166.21 -1133.37)"/>
    <path class="cls-2" d="M1520,3323.33c-1.89-2-3.74-4-5.61-6C1516.21,3319.31,1518.06,3321.33,1520,3323.33Z" transform="translate(-1166.21 -1133.37)"/>
    <path class="cls-2" d="M1176.39,2595.64q-1.86-14.85-3.41-29.79Q1174.51,2580.81,1176.39,2595.64Z" transform="translate(-1166.21 -1133.37)"/>
    <path class="cls-2" d="M1172.57,2561.33q-1.26-12.79-2.28-25.67Q1171.3,2548.53,1172.57,2561.33Z" transform="translate(-1166.21 -1133.37)"/>
    <path class="cls-2" d="M1836.69,3569.44l-2.51-1.4Z" transform="translate(-1166.21 -1133.37)"/>
    <path class="cls-2" d="M1630.41,3427.6q-2.57-2.14-5.11-4.32C1627,3424.72,1628.7,3426.17,1630.41,3427.6Z" transform="translate(-1166.21 -1133.37)"/>
    <path class="cls-2" d="M1975.09,3635.7l-2.95-1.2Z" transform="translate(-1166.21 -1133.37)"/>
    <path class="cls-2" d="M1950.29,3625.3l-1.13-.49Z" transform="translate(-1166.21 -1133.37)"/>
    <path class="cls-2" d="M1859.89,3582l-3-1.58Z" transform="translate(-1166.21 -1133.37)"/>
    <path class="cls-2" d="M1167.7,2494.05q-.5-10.58-.81-21.2Q1167.22,2483.47,1167.7,2494.05Z" transform="translate(-1166.21 -1133.37)"/>
    <path class="cls-2" d="M1650.46,3444.1l-4.26-3.43Z" transform="translate(-1166.21 -1133.37)"/>
    <path class="cls-2" d="M1166.6,2463.15c-.24-10.21-.39-20.45-.39-30.73C1166.21,2442.7,1166.36,2452.94,1166.6,2463.15Z" transform="translate(-1166.21 -1133.37)"/>
    <path class="cls-2" d="M1729.84,3503.29l-3.84-2.66Z" transform="translate(-1166.21 -1133.37)"/>
    <path class="cls-2" d="M1751.46,3517.84l-3.48-2.29Z" transform="translate(-1166.21 -1133.37)"/>
    <path class="cls-2" d="M1234,2847.65q-4.53-13.43-8.76-27Q1229.48,2834.21,1234,2847.65Z" transform="translate(-1166.21 -1133.37)"/>
    <path class="cls-2" d="M1292.57,2991.88c-2.75-5.76-5.43-11.56-8.1-17.36C1287.14,2980.32,1289.82,2986.12,1292.57,2991.88Z" transform="translate(-1166.21 -1133.37)"/>
    <path class="cls-2" d="M1305.25,3017.62q-3.57-7.07-7-14.18Q1301.69,3010.55,1305.25,3017.62Z" transform="translate(-1166.21 -1133.37)"/>
    <path class="cls-2" d="M1213.75,2781.62q-2.52-9-4.9-18.11Q1211.24,2772.6,1213.75,2781.62Z" transform="translate(-1166.21 -1133.37)"/>
    <path class="cls-2" d="M1318.6,3043.28c-2.42-4.53-4.83-9.07-7.19-13.63C1313.77,3034.21,1316.18,3038.75,1318.6,3043.28Z" transform="translate(-1166.21 -1133.37)"/>
    <path class="cls-2" d="M1206.05,2752.74q-2.57-10.11-5-20.29Q1203.5,2742.62,1206.05,2752.74Z" transform="translate(-1166.21 -1133.37)"/>
    <path class="cls-2" d="M1333.33,3070.1c-2.81-5-5.64-10-8.39-15C1327.69,3060.12,1330.52,3065.11,1333.33,3070.1Z" transform="translate(-1166.21 -1133.37)"/>
    <path class="cls-2" d="M1253.92,2902.43q-3.17-8.13-6.2-16.31Q1250.76,2894.3,1253.92,2902.43Z" transform="translate(-1166.21 -1133.37)"/>
    <path class="cls-2" d="M1279.78,2964.32q-5.27-11.71-10.3-23.55Q1274.52,2952.6,1279.78,2964.32Z" transform="translate(-1166.21 -1133.37)"/>
    <path class="cls-2" d="M1265.06,2930.14q-3.37-8.13-6.66-16.31Q1261.67,2922,1265.06,2930.14Z" transform="translate(-1166.21 -1133.37)"/>
    <path class="cls-2" d="M1473.19,3271c-2.06-2.44-4.13-4.86-6.17-7.31C1469.06,3266.1,1471.13,3268.52,1473.19,3271Z" transform="translate(-1166.21 -1133.37)"/>
    <path class="cls-2" d="M1222.49,2811.57q-2.91-9.53-5.69-19.12Q1219.56,2802.05,1222.49,2811.57Z" transform="translate(-1166.21 -1133.37)"/>
    <path class="cls-2" d="M1421.94,3206.43c-2-2.76-4-5.56-6.08-8.33C1417.89,3200.87,1419.89,3203.67,1421.94,3206.43Z" transform="translate(-1166.21 -1133.37)"/>
    <path class="cls-2" d="M1185.41,2655.78q-1.7-9.74-3.24-19.54Q1183.72,2646,1185.41,2655.78Z" transform="translate(-1166.21 -1133.37)"/>
    <path class="cls-2" d="M1243.63,2875.08q-3.45-9.52-6.73-19.12Q1240.2,2865.55,1243.63,2875.08Z" transform="translate(-1166.21 -1133.37)"/>
    <path class="cls-2" d="M1438.89,3228.69c-2.32-3-4.61-6-6.9-9C1434.28,3222.7,1436.57,3225.71,1438.89,3228.69Z" transform="translate(-1166.21 -1133.37)"/>
    <path class="cls-2" d="M1456.13,3250.38q-3.45-4.26-6.88-8.54Q1452.67,3246.13,1456.13,3250.38Z" transform="translate(-1166.21 -1133.37)"/>
    <path class="cls-2" d="M1180.51,2625.53q-1.54-10.44-2.92-20.93Q1179,2615.09,1180.51,2625.53Z" transform="translate(-1166.21 -1133.37)"/>
    <path class="cls-2" d="M1367.12,3126.58c-2.47-3.89-4.89-7.8-7.32-11.72C1362.23,3118.78,1364.65,3122.69,1367.12,3126.58Z" transform="translate(-1166.21 -1133.37)"/>
    <path class="cls-2" d="M1352.22,3102.53c-2.87-4.76-5.68-9.56-8.49-14.36C1346.54,3093,1349.35,3097.77,1352.22,3102.53Z" transform="translate(-1166.21 -1133.37)"/>
    <path class="cls-2" d="M1199.09,2724q-3.25-14.22-6.22-28.56Q1195.82,2709.81,1199.09,2724Z" transform="translate(-1166.21 -1133.37)"/>
    <path class="cls-2" d="M1191.47,2688.32c-1.47-7.36-2.9-14.73-4.24-22.13C1188.57,2673.59,1190,2681,1191.47,2688.32Z" transform="translate(-1166.21 -1133.37)"/>
    <path class="cls-2" d="M1398.23,3173.37c-2.42-3.47-4.85-6.92-7.23-10.42C1393.38,3166.45,1395.81,3169.9,1398.23,3173.37Z" transform="translate(-1166.21 -1133.37)"/>
    <path class="cls-2" d="M1382.48,3150.23q-3.64-5.49-7.25-11Q1378.83,3144.75,1382.48,3150.23Z" transform="translate(-1166.21 -1133.37)"/>
    <path class="cls-2" d="M2992.07,3168.09l-106-214.12-49.19-16.38,376-265.61-114.45-58,203.9-598.41-523-177.3-354.61,199.47-257.09-133-150.71,106.38L1946,1944.68l-518.62-57.62-183.14,101a1296.4,1296.4,0,0,0-78,444.32c0,10.28.15,20.52.39,30.73.07,3.24.19,6.47.29,9.7q.33,10.62.81,21.2c.17,3.62.36,7.24.55,10.85q.57,10.39,1.32,20.72c.23,3.34.45,6.7.72,10q1,12.87,2.28,25.67c.15,1.5.26,3,.41,4.52q1.53,15,3.41,29.79c.38,3,.8,6,1.2,9q1.38,10.49,2.92,20.93.81,5.35,1.66,10.71,1.55,9.8,3.24,19.54c.6,3.47,1.19,6.95,1.82,10.41,1.34,7.4,2.77,14.77,4.24,22.13.47,2.38.91,4.78,1.4,7.15q3,14.34,6.22,28.56c.65,2.82,1.35,5.61,2,8.42q2.4,10.17,5,20.29c.91,3.6,1.86,7.19,2.8,10.77q2.39,9.09,4.9,18.11c1,3.61,2,7.23,3,10.83q2.76,9.6,5.69,19.12c.92,3,1.81,6.08,2.76,9.1q4.23,13.54,8.76,27c.94,2.78,1.93,5.54,2.89,8.31q3.3,9.59,6.73,19.12c1.34,3.69,2.71,7.36,4.09,11q3,8.18,6.2,16.31c1.48,3.81,3,7.61,4.48,11.4q3.27,8.19,6.66,16.31c1.47,3.54,2.92,7.1,4.42,10.63q5,11.83,10.3,23.55c1.54,3.41,3.12,6.8,4.69,10.2,2.67,5.8,5.35,11.6,8.1,17.36,1.85,3.87,3.75,7.71,5.64,11.56q3.48,7.11,7,14.18,3,6,6.16,12c2.36,4.56,4.77,9.1,7.19,13.63,2.11,3.94,4.2,7.89,6.34,11.8,2.75,5,5.58,10,8.39,15q5.13,9.08,10.4,18.07c2.81,4.8,5.62,9.6,8.49,14.36,2.49,4.13,5,8.23,7.58,12.33,2.43,3.92,4.85,7.83,7.32,11.72q4,6.35,8.11,12.63,3.6,5.53,7.25,11c2.83,4.25,5.65,8.51,8.52,12.72,2.38,3.5,4.81,7,7.23,10.42q8.67,12.48,17.63,24.73c2,2.77,4,5.57,6.08,8.33,3.31,4.45,6.68,8.85,10,13.27,2.29,3,4.58,6,6.9,9q5.13,6.61,10.36,13.15,3.42,4.29,6.88,8.54c3.61,4.44,7.22,8.88,10.89,13.27,2,2.45,4.11,4.87,6.17,7.31q20,23.65,41.15,46.35c1.87,2,3.72,4,5.61,6,4.25,4.52,8.56,9,12.88,13.45q3.06,3.15,6.13,6.28,6.64,6.75,13.36,13.41c1.71,1.69,3.44,3.36,5.16,5q23.94,23.4,49.07,45.56c1,.93,2.09,1.87,3.14,2.79,5.16,4.52,10.38,9,15.61,13.42q2.55,2.17,5.11,4.32,7.85,6.6,15.79,13.07l4.26,3.43q36.7,29.58,75.54,56.53l3.84,2.66q9,6.21,18.14,12.26l3.48,2.29q40.35,26.58,82.72,50.2l2.51,1.4q10,5.57,20.19,10.95l3,1.58q43.68,23.06,89.27,42.84l1.13.49q10.88,4.71,21.85,9.2l2.95,1.2C2006.16,3648.37,2992.07,3168.09,2992.07,3168.09Z" transform="translate(-1166.21 -1133.37)"/>
  </g>
  <path class="cls-3" d="M3129.78,2454.66c-2.67,12.11-16,19.47-29.64,16.45l-425.9-93.85c-13.7-3-22.64-15.28-20-27.39l112-508.13c2.67-12.11,15.94-19.48,29.64-16.47l425.9,93.86c13.69,3,22.64,15.28,20,27.4Z" transform="translate(-1166.21 -1133.37)"/>
  <path class="cls-4" d="M2815,2499.28c0,13.8-15.74,25-35.16,25H2176.22c-19.41,0-35.16-11.19-35.16-25V1920.56c0-13.8,15.75-25,35.16-25h603.61c19.42,0,35.16,11.18,35.16,25Z" transform="translate(-1166.21 -1133.37)"/>
  <g>
    <g>
      <path class="cls-5" d="M3338.58,1983H2011.41c-13.84,0-25.07,12.87-25.07,28.83s11.23,28.82,25.07,28.82H3338.58c13.84,0,25.06-12.9,25.06-28.82S3352.42,1983,3338.58,1983Z" transform="translate(-1166.21 -1133.37)"/>
      <path class="cls-5" d="M3254.91,2214.24H2076.47c-13.84,0-25.06,12.91-25.06,28.86s11.22,28.81,25.06,28.81H3254.91c13.88,0,25.06-12.9,25.06-28.81S3268.79,2214.24,3254.91,2214.24Z" transform="translate(-1166.21 -1133.37)"/>
      <path class="cls-5" d="M3166.55,2445.48H2127.66c-13.87,0-25.09,12.9-25.09,28.82s11.22,28.81,25.09,28.81H3166.55c13.84,0,25.06-12.86,25.06-28.81S3180.39,2445.48,3166.55,2445.48Z" transform="translate(-1166.21 -1133.37)"/>
      <polygon class="cls-5" points="1088.54 888.18 1038.78 895.6 1106.54 1496.94 1159.09 1509.76 1088.54 888.18"/>
      <polygon class="cls-5" points="1288.57 892.54 1238.53 896.51 1275.35 1515.24 1327.9 1504.27 1288.57 892.54"/>
      <polygon class="cls-5" points="1439.53 883.84 1439.38 1517.1 1487.18 1515.24 1489.69 883.84 1439.53 883.84"/>
      <polygon class="cls-5" points="1671.14 881.75 1576.32 1524.39 1630.5 1502.41 1720.58 891.31 1671.14 881.75"/>
      <polygon class="cls-5" points="1886.78 881.46 1730.84 1528.06 1786.58 1515.24 1935.02 896.88 1886.78 881.46"/>
      <polygon class="cls-5" points="2097.78 871.07 1891.69 1496.94 1941.05 1520.77 2144.67 891.31 2097.78 871.07"/>
    </g>
    <g>
      <path class="cls-3" d="M3212.9,2587.55H2201.37l-203.83-656.9c-2.93,35.16-34.53,42.38-64.94,46.63L2141,2644c5.19,16.79,19,28,34.56,28H3212.9c20.29,0,36.71-18.88,36.71-42.22S3233.19,2587.55,3212.9,2587.55Z" transform="translate(-1166.21 -1133.37)"/>
      <path class="cls-5" d="M1988.21,1897.21a69.25,69.25,0,0,0-46-17H1467.84c-36.21,0-65.57,26.36-65.57,58.88s29.36,58.88,65.57,58.88h474.34a69.23,69.23,0,0,0,7.89-.72c30.4-3.31,54.14-25.1,57.07-52.57a53.39,53.39,0,0,0,.61-5.59C2007.75,1922.71,2000.26,1907.9,1988.21,1897.21Z" transform="translate(-1166.21 -1133.37)"/>
    </g>
    <polygon class="cls-3" points="1762.28 1939.46 951.81 1939.46 1048.58 1490.51 1099.38 1505 1018.71 1879.27 1762.28 1879.27 1762.28 1939.46"/>
    <g>
      <circle class="cls-5" cx="2159.96" cy="3048.13" r="145.6" transform="translate(-1281.59 -1048.23) rotate(-2.2)"/>
      <path class="cls-4" d="M2269.16,3048.13a109.2,109.2,0,1,1-109.2-109.2A109.18,109.18,0,0,1,2269.16,3048.13Z" transform="translate(-1166.21 -1133.37)"/>
    </g>
    <g>
      <path class="cls-5" d="M3059.09,3048.13a145.6,145.6,0,1,1-145.59-145.6A145.6,145.6,0,0,1,3059.09,3048.13Z" transform="translate(-1166.21 -1133.37)"/>
      <path class="cls-4" d="M3022.7,3048.13a109.2,109.2,0,1,1-109.2-109.2A109.18,109.18,0,0,1,3022.7,3048.13Z" transform="translate(-1166.21 -1133.37)"/>
    </g>
  </g>
</svg>
