<svg width="257" height="257" viewBox="0 0 257 257" fill="none" xmlns="http://www.w3.org/2000/svg">
<circle cx="128.5" cy="128.5" r="128.5" fill="#FFEA30"/>
<path d="M93.6621 190.813C93.0768 191.776 92.1644 192.497 91.0916 192.843C88.8658 192.978 86.6741 192.247 84.9762 190.801C83.4855 189.51 82.6287 187.538 84.002 185.812C84.0594 185.737 84.1265 185.67 84.2015 185.613C85.5631 184.204 87.7228 185.179 88.8966 186.528C89.0051 186.631 89.0796 186.764 89.1098 186.91C89.1401 187.056 89.1247 187.208 89.0658 187.345C89.0068 187.482 88.9072 187.598 88.7804 187.676C88.6536 187.755 88.5056 187.793 88.3567 187.784C87.9041 187.826 87.4488 187.741 87.042 187.538C86.9465 187.654 86.8639 187.78 86.7956 187.914C86.7025 188.128 86.6545 188.36 86.6545 188.594C86.6545 188.828 86.7025 189.06 86.7956 189.275C87.232 189.97 87.9228 190.467 88.7205 190.66C90.2582 190.965 91.1502 188.571 91.5259 187.526C91.5475 187.423 91.6059 187.331 91.6902 187.268C90.2431 185.22 88.6753 183.26 86.9951 181.399C86.5139 180.847 85.9857 180.284 85.4575 179.756C84.1311 178.359 82.7578 177.009 81.4549 175.753C80.3637 176.005 79.4026 176.648 78.7537 177.561C78.1048 178.474 77.813 179.593 77.9336 180.707C78.0444 181.308 78.2717 181.882 78.6027 182.397L78.8726 182.784C78.8726 182.784 78.99 182.702 79.1074 182.667C79.5383 182.383 79.8705 181.973 80.0581 181.493C80.2459 181.07 80.0581 180.577 80.422 180.765C80.152 180.613 79.0487 179.861 79.6356 179.498C80.2225 179.134 81.2671 179.615 81.8071 179.885C82.1198 180.003 82.4057 180.182 82.648 180.412C82.8902 180.643 83.0837 180.919 83.2173 181.226C83.3508 181.532 83.4215 181.862 83.4252 182.196C83.429 182.531 83.3657 182.862 83.239 183.171C82.9706 183.669 82.5626 184.077 82.0653 184.345C80.0347 185.519 77.4993 184.345 76.1025 182.69C75.4863 181.844 75.138 180.833 75.1024 179.786C75.0668 178.74 75.3457 177.707 75.903 176.821C76.9477 174.908 77.605 174.767 78.6144 173.124C79.1309 172.42 79.6238 171.715 80.0933 171.011C83.4151 173.723 87.9928 175.706 91.1033 178.782C93.4508 181.129 94.742 184.369 96.4557 187.221C95.5959 188.472 94.6631 189.671 93.6621 190.813Z" fill="#D57E59"/>
<path d="M96.3267 187.209C94.613 184.357 93.3218 181.059 90.9743 178.828C87.8638 175.777 83.2861 173.77 79.9644 171.058C84.8707 164.016 89.0845 156.621 93.9205 149.402C102.372 136.69 113.217 125.375 121.363 112.405C129.509 99.4348 134.181 85.2674 143.876 73.518C153.818 61.9916 166.565 53.1648 177.657 43C182.916 46.2866 188.068 53.5639 192.271 60.6065C181.073 69.4802 170.532 76.5346 162.21 89.3756C152.82 103.308 145.226 118.72 136.493 133.674C129.85 145.329 117.243 151.28 109.672 162.267C104.66 169.438 101.468 179.392 96.3267 187.209Z" fill="#97593F"/>
<path d="M83.0747 183.207C83.2014 182.897 83.2647 182.566 83.2609 182.231C83.2572 181.897 83.1864 181.567 83.0529 181.261C82.9194 180.954 82.7259 180.678 82.4836 180.448C82.2414 180.217 81.9555 180.038 81.6427 179.92C81.1028 179.65 80.0934 179.122 79.4713 179.533C78.8492 179.943 79.9877 180.706 80.2577 180.8C79.9056 180.613 80.0816 181.106 79.8938 181.528C79.7062 182.008 79.374 182.419 78.9431 182.702C78.8257 182.702 78.7435 182.761 78.7083 182.819L78.4384 182.432C78.1074 181.917 77.8801 181.343 77.7693 180.742C77.6487 179.628 77.9405 178.509 78.5894 177.596C79.2383 176.684 80.1993 176.04 81.2906 175.788C82.5935 177.044 83.9668 178.394 85.2932 179.791L83.0747 183.207Z" fill="#683E2B"/>
<path d="M88.6264 190.648C87.8287 190.455 87.1379 189.958 86.7015 189.263C86.6084 189.048 86.5604 188.816 86.5604 188.582C86.5604 188.348 86.6084 188.116 86.7015 187.902C86.7698 187.768 86.8525 187.642 86.948 187.526C87.3547 187.729 87.81 187.814 88.2626 187.772C88.4115 187.781 88.5594 187.743 88.6863 187.664C88.8131 187.586 88.9127 187.47 88.9717 187.333C89.0306 187.196 89.046 187.044 89.0157 186.898C88.9854 186.752 88.911 186.619 88.8025 186.516C87.6874 185.167 85.5042 184.169 84.1074 185.601L86.7836 181.446C88.4638 183.307 90.0316 185.267 91.4787 187.315C91.3944 187.378 91.336 187.47 91.3144 187.573C91.0561 188.559 90.1641 190.953 88.6264 190.648Z" fill="#683E2B"/>
<path d="M119.145 208.83L117.642 210.52C117.22 211.002 116.821 211.471 116.398 211.905C114.778 213.666 113.252 214.84 111.386 214.699C110.304 214.647 109.275 214.21 108.486 213.468C107.696 212.726 107.197 211.727 107.078 210.649C106.98 209.98 107.087 209.297 107.383 208.689L107.712 208.126C108.023 207.614 108.519 207.24 109.097 207.081C110.975 206.659 113.158 207.551 113.323 209.605C113.323 209.992 111.832 209.922 110.834 209.499C110.641 209.814 110.513 210.164 110.459 210.529C110.404 210.894 110.424 211.266 110.517 211.624C110.693 212.164 110.517 212.14 111.057 212.375C111.057 212.375 111.539 212.621 111.351 212.434C111.351 212.434 111.832 212.633 112.032 212.434C113.299 211.409 114.298 210.092 114.943 208.595C114.236 207.181 113.278 205.909 112.114 204.839C111.563 204.355 110.965 203.926 110.33 203.56C109.985 203.359 109.628 203.179 109.261 203.02C107.542 202.329 105.751 201.833 103.921 201.541C103.287 202.586 102.313 203.889 102.747 204.616C102.874 204.848 103.032 205.061 103.217 205.25C103.351 204.97 103.592 204.754 103.886 204.651C104.307 204.512 104.76 204.5 105.188 204.617C105.616 204.734 106 204.975 106.292 205.309C106.547 205.555 106.734 205.862 106.837 206.201C106.94 206.54 106.954 206.899 106.879 207.245C106.782 207.48 106.632 207.689 106.44 207.856C106.249 208.023 106.021 208.144 105.775 208.208C105.073 208.381 104.342 208.409 103.628 208.292C102.914 208.175 102.231 207.915 101.62 207.527C101.046 207.197 100.55 206.745 100.167 206.204C99.7835 205.663 99.5226 205.045 99.4018 204.393C99.318 203.183 99.5442 201.971 100.059 200.872L100.658 199.827C100.998 199.24 101.339 198.654 101.702 198.078C105.321 198.098 108.863 199.118 111.938 201.025C114.344 202.724 116.44 204.825 118.135 207.234C118.53 207.726 118.869 208.262 119.145 208.83Z" fill="#D57E59"/>
<path d="M198.057 81.9691C191.261 89.7511 186.648 99.2587 181.542 108.05L150.918 160.694C144.263 172.161 138.206 184.897 130.377 195.238C126.856 200.085 122.947 204.417 119.121 208.83C118.843 208.253 118.501 207.71 118.1 207.21C116.405 204.801 114.308 202.701 111.902 201.001C108.827 199.094 105.285 198.075 101.667 198.055C117.172 171.856 134.462 147.066 149.791 120.739C164.581 95.3031 174.781 67.2031 196.108 46.3569C200.299 49.5496 202.858 55.571 206.332 59.2684C208.116 61.1328 210.293 62.5763 212.705 63.494C208.351 69.9732 203.186 75.6542 198.057 81.9691Z" fill="#A76345"/>
<path d="M109.238 203.114L106.89 207.222C106.966 206.876 106.951 206.516 106.849 206.177C106.746 205.838 106.558 205.531 106.304 205.285C106.008 204.953 105.621 204.715 105.191 204.603C104.76 204.49 104.306 204.507 103.886 204.652C103.72 204.71 103.57 204.804 103.446 204.928C103.323 205.052 103.228 205.202 103.17 205.368C102.985 205.178 102.827 204.965 102.7 204.734C102.313 204.053 103.287 202.703 103.874 201.658C105.711 201.941 107.51 202.429 109.238 203.114Z" fill="#683E2B"/>
<path d="M112.008 212.527C111.809 212.68 111.327 212.527 111.327 212.527C111.515 212.715 111.034 212.469 111.034 212.469C110.494 212.234 110.67 212.257 110.494 211.718C110.401 211.36 110.381 210.988 110.435 210.623C110.49 210.258 110.617 209.907 110.811 209.593C111.809 210.016 113.323 210.086 113.299 209.699C113.135 207.645 110.952 206.752 109.074 207.175C108.496 207.334 108 207.707 107.689 208.22L110.306 203.701C110.942 204.067 111.54 204.495 112.09 204.98C113.254 206.049 114.213 207.322 114.919 208.736C114.268 210.216 113.27 211.517 112.008 212.527Z" fill="#683E2B"/>
<path d="M168.361 114.271C160.919 110.093 152.926 105.21 144.627 101.63C156.286 97.3019 166.381 89.5788 173.607 79.4573C173.748 79.246 173.678 79.0582 173.408 78.8587C173.725 78.4713 173.279 78.1192 171.424 77.9197C159.879 76.7131 148.209 77.9121 137.15 81.441C142.761 71.4991 145.367 60.5948 147.808 49.4323C148.289 47.2608 140.002 48.329 139.052 48.8689C126.539 56.0289 115.201 65.466 109.215 77.6027C103.553 64.7418 93.5938 54.2512 81.0441 47.9299C79.4126 47.0965 72.6164 46.6035 73.0859 50.0192C75.2457 65.9003 81.7484 80.9832 92.3945 92.5213C86.951 91.6894 81.4154 91.6538 75.9617 92.4157C62.6042 94.2233 52.4863 104.318 44.2699 114.177C42.9436 115.785 46.8992 116.642 47.6034 116.748C60.4652 118.926 73.6316 118.527 86.3378 115.574C83.6021 118.23 81.0822 121.099 78.8022 124.154C70.938 134.718 70.0107 147.63 68.8486 160.283C68.5435 163.511 75.3865 162.854 76.889 161.903C86.7016 155.842 95.43 148.181 102.712 139.237C104.994 136.357 106.907 133.203 108.405 129.847C110.374 136.635 113.791 142.915 118.422 148.254C123.052 153.594 128.785 157.866 135.225 160.776C136.481 161.363 143.899 162.278 143.946 159.825C144.205 144.484 138.747 131.76 130.589 120.304C142.843 125.915 156.189 126.666 169.1 117.112C170.497 115.997 169.358 114.823 168.361 114.271ZM132.232 88.2958C132.596 88.0845 132.948 87.9084 133.312 87.7089C142.578 82.5984 153.027 80.0195 163.607 80.232C157.398 88.4484 148.876 95.6905 139.24 99.517C134.105 97.6279 128.688 96.6199 123.218 96.5356C126.521 94.1256 129.544 91.3539 132.232 88.2723V88.2958ZM84.1076 58.0008C95.0002 66.7336 101.714 79.1286 104.954 92.803C105.083 93.343 105.2 93.8477 105.318 94.3876C105.149 94.2524 104.988 94.1074 104.836 93.9533C94.2959 84.5749 87.3707 71.7339 84.0607 57.9304L84.1076 58.0008ZM55.0803 113.168C61.0313 106.243 67.6279 100.069 76.4781 97.0404C84.3306 94.3172 92.77 96.3948 100.27 99.7165C101.444 100.597 102.618 101.465 103.792 102.299C89.2253 112.029 72.2526 114.999 55.0334 113.168H55.0803ZM96.7022 133.638C92.6996 140.951 86.0561 147.172 79.0957 152.337C80.3516 142.019 82.617 132.383 89.1783 123.591C93.5876 117.948 98.9698 113.138 105.071 109.388C103.134 117.793 100.881 125.892 96.6552 133.638H96.7022ZM114.45 93.2725C114.352 93.3235 114.265 93.391 114.191 93.4721C114.191 93.1082 114.191 92.7561 114.273 92.4274C115.682 77.5323 124.837 65.9237 136.739 56.9914C134.392 66.4637 131.598 75.6308 126.176 83.988C125.354 85.1618 124.474 86.2065 123.558 87.2394C120.358 88.9907 117.311 91.0089 114.45 93.2725ZM134.404 153.616C121.21 143.709 115.846 128.908 114.766 112.417C125.013 124.413 132.948 137.524 134.404 153.616ZM145.202 119.412H145.132C141.696 118.984 138.364 117.943 135.296 116.337L134.674 116.044C129.856 113.379 125.372 110.152 121.316 106.431L121.187 106.301C120.835 105.926 120.518 105.562 120.213 105.198C119.348 104.183 118.622 103.058 118.053 101.853C122.125 100.857 126.38 100.889 130.436 101.947C132.557 102.427 134.631 103.095 136.634 103.942C137.08 104.118 137.514 104.306 137.948 104.506C138.383 104.705 138.535 104.74 138.852 104.869L140.542 105.644C141.834 106.243 143.136 106.818 144.381 107.569C145.026 107.886 145.672 108.215 146.282 108.578L148.148 109.611C148.771 109.952 149.322 110.316 149.944 110.656C151.74 111.689 153.466 112.71 154.956 113.637L157.867 115.375C158.302 115.656 158.748 115.903 159.147 116.149C155.215 119.365 150.273 120.14 145.214 119.412H145.202Z" fill="#B66C4C"/>
<path d="M134.403 153.616C121.21 143.709 115.846 128.908 114.766 112.417C125.013 124.413 132.948 137.524 134.403 153.616Z" fill="#E68D5C"/>
<path d="M96.6551 133.638C92.6526 140.951 86.009 147.172 79.0486 152.337C80.3045 142.019 82.5699 132.383 89.1313 123.591C93.5405 117.948 98.9227 113.138 105.024 109.388C103.134 117.793 100.881 125.892 96.6551 133.638Z" fill="#E68D5C"/>
<path d="M103.792 102.323C89.2251 112.03 72.2524 114.999 55.0332 113.168C60.9842 106.243 67.5808 100.069 76.431 97.0407C84.2835 94.3175 92.7229 96.3951 100.223 99.7169C101.385 100.621 102.571 101.489 103.792 102.323Z" fill="#E68D5C"/>
<path d="M105.271 94.3172C105.102 94.182 104.941 94.037 104.789 93.883C94.2958 84.4928 87.3706 71.687 84.0605 57.9304C94.9531 66.6633 101.667 79.0582 104.907 92.7326C105.059 93.3195 105.153 93.8243 105.271 94.3172Z" fill="#E68D5C"/>
<path d="M136.751 56.9915C134.404 66.4638 131.61 75.6309 126.187 83.9881C125.366 85.1619 124.485 86.2066 123.57 87.2395C120.357 88.9928 117.298 91.015 114.426 93.2844C114.426 93.0027 114.297 92.721 114.25 92.4393C115.682 77.5324 124.802 65.9238 136.751 56.9915Z" fill="#E68D5C"/>
<path d="M163.607 80.232C157.398 88.4484 148.876 95.6906 139.239 99.517C134.105 97.628 128.688 96.62 123.218 96.5357C126.518 94.1403 129.542 91.3845 132.232 88.3193C132.596 88.108 132.948 87.932 133.312 87.7324C142.576 82.6137 153.025 80.0268 163.607 80.232Z" fill="#E68D5C"/>
<path d="M159.182 116.114C155.215 119.366 150.273 120.14 145.214 119.413H145.144C141.731 118.881 138.416 117.844 135.308 116.337L134.686 116.044C129.868 113.379 125.384 110.152 121.328 106.431L121.199 106.302C120.847 105.926 120.53 105.562 120.225 105.198C119.36 104.183 118.634 103.059 118.065 101.853C122.137 100.857 126.392 100.89 130.448 101.947C132.569 102.427 134.643 103.095 136.646 103.942C137.101 104.099 137.547 104.279 137.984 104.482C138.265 104.576 138.571 104.717 138.888 104.846L140.578 105.621C141.869 106.243 143.16 106.877 144.416 107.546C145.062 107.886 145.707 108.215 146.318 108.555L148.184 109.588C148.806 109.929 149.358 110.292 149.98 110.633C151.776 111.666 153.501 112.687 154.992 113.614L157.903 115.351C158.337 115.621 158.783 115.868 159.182 116.114Z" fill="#E68D5C"/>
<g style="mix-blend-mode:multiply" opacity="0.51">
<path d="M159.229 93.7888C156.881 97.5566 154.534 101.407 152.303 105.315C149.768 103.977 147.198 102.733 144.592 101.606C149.804 99.6788 154.728 97.0487 159.229 93.7888Z" fill="#999999"/>
</g>
<g style="mix-blend-mode:multiply" opacity="0.51">
<path d="M142.01 123.767C140.542 126.42 139.063 129.061 137.538 131.69C135.53 127.678 133.206 123.831 130.589 120.187C134.217 121.89 138.059 123.094 142.01 123.767Z" fill="#999999"/>
</g>
<g style="mix-blend-mode:multiply" opacity="0.51">
<path d="M120.671 150.517C118.546 152.395 116.433 154.32 114.473 156.386C112.172 155.274 110.042 153.839 108.147 152.125C107.132 151.23 106.295 150.151 105.682 148.944C101.233 154.215 94.1552 156.175 87.8169 158.828C89.7771 155.682 91.7725 152.524 93.8735 149.437C94.2961 148.804 94.7187 148.17 95.1647 147.536C97.8575 144.907 100.378 142.108 102.712 139.155C104.789 136.539 106.551 133.687 107.959 130.657L108.499 129.976C110.802 137.721 114.983 144.777 120.671 150.517Z" fill="#999999"/>
</g>
<g style="mix-blend-mode:multiply" opacity="0.51">
<path d="M188.397 54.5967C184.662 59.1003 181.227 63.8447 178.115 68.7993C176.777 70.8534 175.485 72.9427 174.241 75.0438C173.267 75.9358 172.281 76.8748 171.342 77.8608C170.45 77.7669 169.558 77.6965 168.642 77.6495C158.428 76.9018 148.164 78.0356 138.359 80.9948C140.01 78.369 141.817 75.8448 143.77 73.4357C144.193 72.9427 144.592 72.4732 145.038 72.0037C151.435 69.7266 156.94 67.5316 164.147 67.5316C167.284 67.4989 170.42 67.6636 173.537 68.0246C173.634 67.8551 173.74 67.6905 173.854 67.5316C177.704 62.2614 183.091 56.9677 185.897 51.0989C186.801 52.2609 187.646 53.4112 188.397 54.5967Z" fill="#999999"/>
</g>
<g style="mix-blend-mode:multiply" opacity="0.51">
<path d="M161.975 126.936C158.755 128.08 155.34 128.571 151.928 128.38C149.667 128.557 147.396 128.58 145.132 128.45C146 127.077 146.822 125.668 147.608 124.283C154.539 124.364 161.328 122.315 167.058 118.415C170.074 122.558 165.415 125.481 161.975 126.936Z" fill="#999999"/>
</g>
<g style="mix-blend-mode:multiply" opacity="0.51">
<path d="M143.23 165.471C139.815 166.257 136.563 165.189 133.324 164.414C130.345 163.629 127.475 162.477 124.779 160.987C125.753 159.449 126.739 157.923 127.725 156.374C130.106 158.002 132.614 159.434 135.225 160.658C136.481 161.245 143.911 162.161 143.958 159.731C144.109 151.985 142.725 144.286 139.885 137.077C140.14 136.703 140.367 136.31 140.566 135.904C141.388 138.345 142.855 140.446 143.536 142.946C144.005 145.294 144.709 147.641 145.179 149.989C145.755 152.537 146.085 155.136 146.165 157.747C146.141 160.447 146.564 164.743 143.23 165.471Z" fill="#999999"/>
</g>
</svg>
