<svg width="286" height="286" viewBox="0 0 286 286" fill="none" xmlns="http://www.w3.org/2000/svg">
<circle cx="143" cy="143" r="143" fill="#186389"/>
<path d="M224.814 91.4962C224.814 92.297 224.495 93.0651 223.929 93.6314C223.363 94.1976 222.595 94.5158 221.794 94.5158H150.774C149.973 94.5158 149.205 94.1976 148.639 93.6314C148.073 93.0651 147.754 92.297 147.754 91.4962C147.754 90.6953 148.073 89.9273 148.639 89.361C149.205 88.7947 149.973 88.4766 150.774 88.4766H221.794C222.595 88.4766 223.363 88.7947 223.929 89.361C224.495 89.9273 224.814 90.6953 224.814 91.4962Z" fill="#D0ECF2"/>
<path d="M180.567 101.967V122.912H164.162C159.112 117.476 155.382 110.234 153.658 101.967H180.567Z" fill="#D0ECF2"/>
<path d="M180.567 122.912V125.931H163.99C163.59 125.931 163.206 125.772 162.923 125.489C162.64 125.206 162.48 124.822 162.48 124.422C162.48 124.021 162.64 123.637 162.923 123.354C163.206 123.071 163.59 122.912 163.99 122.912H180.567Z" fill="#D0ECF2"/>
<path d="M180.567 94.5083V101.967H153.658C153.12 99.5116 152.778 97.0176 152.634 94.5083H180.567Z" fill="#A7DAD9"/>
<path d="M219.939 94.5083C219.778 97.0157 219.437 99.5083 218.919 101.967H180.567V94.5083H219.939Z" fill="#71A1A2"/>
<path d="M218.919 101.967C217.171 110.234 213.444 117.496 208.415 122.912H180.567V101.967H218.919Z" fill="#A7DAD9"/>
<path d="M210.075 124.423C210.072 124.823 209.913 125.205 209.63 125.488C209.347 125.771 208.965 125.93 208.565 125.933H180.569V122.913H208.565C208.965 122.915 209.348 123.074 209.631 123.357C209.913 123.64 210.073 124.023 210.075 124.423Z" fill="#71A1A2"/>
<path d="M218.505 88.4787H154.027C154.027 78.1398 165.201 72.7746 172.123 79.7617C174.711 74.9153 179.497 71.6498 184.979 71.6498C191.142 71.6498 196.419 75.7478 198.726 81.5929C200.655 78.3706 203.964 76.2267 207.744 76.2267C213.196 76.2267 218.505 80.7862 218.505 88.4787Z" fill="#C22E26"/>
<path d="M167.098 84.4594C167.098 84.7538 167.011 85.0416 166.847 85.2864C166.684 85.5311 166.451 85.7219 166.179 85.8345C165.907 85.9471 165.608 85.9765 165.319 85.919C165.031 85.8615 164.765 85.7196 164.557 85.5114C164.349 85.3032 164.208 85.0379 164.15 84.7491C164.093 84.4603 164.123 84.1611 164.235 83.8892C164.348 83.6173 164.539 83.3849 164.784 83.2215C165.029 83.0581 165.317 82.971 165.611 82.9712C165.807 82.9712 166 83.0097 166.181 83.0845C166.361 83.1593 166.525 83.269 166.663 83.4072C166.801 83.5454 166.911 83.7094 166.985 83.89C167.06 84.0705 167.098 84.264 167.098 84.4594Z" fill="#EF5323"/>
<path d="M173.413 84.4594C173.413 84.7538 173.325 85.0415 173.162 85.2863C172.998 85.531 172.766 85.7217 172.494 85.8344C172.222 85.947 171.923 85.9765 171.634 85.9191C171.345 85.8617 171.08 85.7199 170.872 85.5118C170.664 85.3036 170.522 85.0385 170.465 84.7498C170.407 84.4611 170.437 84.1618 170.549 83.8899C170.662 83.618 170.853 83.3856 171.097 83.222C171.342 83.0585 171.63 82.9712 171.924 82.9712C172.319 82.9712 172.698 83.128 172.977 83.4071C173.256 83.6862 173.413 84.0647 173.413 84.4594Z" fill="#EF5323"/>
<path d="M179.726 84.4594C179.726 84.7538 179.638 85.0416 179.475 85.2864C179.311 85.5311 179.079 85.7219 178.807 85.8345C178.535 85.9471 178.235 85.9765 177.947 85.919C177.658 85.8615 177.393 85.7196 177.185 85.5114C176.977 85.3032 176.835 85.0379 176.778 84.7491C176.72 84.4603 176.75 84.1611 176.863 83.8892C176.976 83.6173 177.167 83.3849 177.411 83.2215C177.656 83.0581 177.944 82.971 178.239 82.9712C178.434 82.9712 178.627 83.0097 178.808 83.0845C178.988 83.1593 179.152 83.269 179.291 83.4072C179.429 83.5454 179.538 83.7094 179.613 83.89C179.688 84.0705 179.726 84.264 179.726 84.4594Z" fill="#EF5323"/>
<path d="M186.04 84.4594C186.04 84.7538 185.953 85.0415 185.789 85.2863C185.626 85.531 185.393 85.7217 185.121 85.8344C184.849 85.947 184.55 85.9765 184.261 85.9191C183.973 85.8617 183.707 85.7199 183.499 85.5118C183.291 85.3036 183.15 85.0385 183.092 84.7498C183.035 84.4611 183.064 84.1618 183.177 83.8899C183.289 83.618 183.48 83.3856 183.725 83.222C183.97 83.0585 184.257 82.9712 184.552 82.9712C184.946 82.9712 185.325 83.128 185.604 83.4071C185.883 83.6862 186.04 84.0647 186.04 84.4594Z" fill="#EF5323"/>
<path d="M192.353 84.4594C192.353 84.7538 192.266 85.0415 192.102 85.2863C191.939 85.531 191.706 85.7217 191.434 85.8344C191.162 85.947 190.863 85.9765 190.574 85.9191C190.286 85.8617 190.02 85.7199 189.812 85.5118C189.604 85.3036 189.462 85.0385 189.405 84.7498C189.348 84.4611 189.377 84.1618 189.49 83.8899C189.602 83.618 189.793 83.3856 190.038 83.222C190.283 83.0585 190.57 82.9712 190.865 82.9712C191.259 82.9712 191.638 83.128 191.917 83.4071C192.196 83.6862 192.353 84.0647 192.353 84.4594Z" fill="#EF5323"/>
<path d="M182.701 79.3897C182.701 79.6842 182.614 79.9721 182.451 80.217C182.287 80.4619 182.055 80.6528 181.783 80.7656C181.511 80.8783 181.212 80.9079 180.923 80.8505C180.634 80.7931 180.369 80.6514 180.16 80.4432C179.952 80.235 179.811 79.9697 179.753 79.6809C179.696 79.3921 179.725 79.0928 179.838 78.8208C179.951 78.5488 180.142 78.3164 180.387 78.1529C180.632 77.9895 180.919 77.9024 181.214 77.9026C181.608 77.9026 181.987 78.0593 182.265 78.3382C182.544 78.6171 182.701 78.9953 182.701 79.3897Z" fill="#EF5323"/>
<path d="M189.015 79.3897C189.016 79.6841 188.928 79.972 188.765 80.2169C188.602 80.4617 188.369 80.6527 188.097 80.7655C187.825 80.8783 187.526 80.9079 187.237 80.8506C186.949 80.7933 186.683 80.6517 186.475 80.4436C186.267 80.2355 186.125 79.9703 186.067 79.6816C186.01 79.3929 186.039 79.0936 186.152 78.8216C186.265 78.5496 186.455 78.3171 186.7 78.1535C186.945 77.9899 187.233 77.9026 187.527 77.9026C187.922 77.9026 188.3 78.0593 188.579 78.3381C188.858 78.617 189.015 78.9952 189.015 79.3897Z" fill="#EF5323"/>
<path d="M198.666 84.4594C198.666 84.7538 198.579 85.0415 198.415 85.2863C198.252 85.531 198.019 85.7217 197.747 85.8344C197.476 85.947 197.176 85.9765 196.888 85.9191C196.599 85.8617 196.334 85.7199 196.126 85.5118C195.917 85.3036 195.776 85.0385 195.718 84.7498C195.661 84.4611 195.69 84.1618 195.803 83.8899C195.916 83.618 196.106 83.3856 196.351 83.222C196.596 83.0585 196.884 82.9712 197.178 82.9712C197.573 82.9712 197.951 83.128 198.23 83.4071C198.509 83.6862 198.666 84.0647 198.666 84.4594Z" fill="#EF5323"/>
<path d="M204.98 84.4594C204.98 84.7538 204.893 85.0415 204.73 85.2863C204.566 85.531 204.334 85.7217 204.062 85.8344C203.79 85.947 203.49 85.9765 203.202 85.9191C202.913 85.8617 202.648 85.7199 202.44 85.5118C202.232 85.3036 202.09 85.0385 202.033 84.7498C201.975 84.4611 202.005 84.1618 202.117 83.8899C202.23 83.618 202.421 83.3856 202.665 83.222C202.91 83.0585 203.198 82.9712 203.492 82.9712C203.887 82.9712 204.265 83.128 204.544 83.4071C204.824 83.6862 204.98 84.0647 204.98 84.4594Z" fill="#EF5323"/>
<path d="M93.3994 83.0219C93.3994 83.0219 88.3988 74.1788 86.5989 72.3843C83.8575 69.6429 79.8565 69.1997 77.6598 71.3975C75.463 73.5954 75.9041 77.5974 78.6444 80.3388C80.4443 82.1376 89.2831 87.1383 89.2831 87.1383L98.3236 96.1787L102.44 92.0624L93.3994 83.0219Z" fill="#F39D21"/>
<path d="M194.581 184.202C194.581 184.202 203.424 189.204 205.219 191.004C207.96 193.746 208.402 197.746 206.205 199.943C204.009 202.14 200.007 201.7 197.265 198.959C195.465 197.159 190.465 188.32 190.465 188.32L181.424 179.278L185.54 175.163L194.581 184.202Z" fill="#F39D21"/>
<path d="M192.144 172.678L178.933 185.889C178.29 186.531 177.418 186.891 176.51 186.891C175.601 186.891 174.73 186.531 174.087 185.889L91.7107 103.514C91.0689 102.871 90.7085 102 90.7085 101.092C90.7085 100.183 91.0689 99.3118 91.7107 98.6689L104.921 85.457C105.239 85.1381 105.617 84.885 106.032 84.7124C106.448 84.5397 106.894 84.4508 107.344 84.4508C107.794 84.4508 108.24 84.5397 108.656 84.7124C109.072 84.885 109.449 85.1381 109.767 85.457L192.144 167.834C192.463 168.152 192.715 168.529 192.888 168.945C193.061 169.36 193.149 169.806 193.149 170.256C193.149 170.706 193.061 171.152 192.888 171.567C192.715 171.983 192.463 172.361 192.144 172.678Z" fill="#C22E26"/>
<path d="M180.205 177.266C179.838 177.633 179.341 177.839 178.822 177.839C178.303 177.839 177.805 177.633 177.438 177.266L100.49 100.317C100.123 99.9493 99.9165 99.4512 99.9165 98.9319C99.9165 98.4125 100.123 97.9145 100.49 97.5472L105.99 92.0472C106.358 91.6801 106.857 91.4739 107.376 91.4739C107.896 91.4739 108.395 91.6801 108.763 92.0472L185.711 168.996C186.078 169.364 186.284 169.862 186.284 170.381C186.284 170.9 186.078 171.398 185.711 171.766L180.205 177.266Z" fill="#E65124"/>
<path d="M101.364 168.69C100.811 168.153 100.156 167.733 99.4364 167.456C98.7174 167.179 97.9496 167.051 97.1795 167.079C96.4095 167.107 95.653 167.29 94.9559 167.619C94.2587 167.947 93.6353 168.413 93.1232 168.989C90.5134 171.927 70.6617 194.791 70.6326 194.821L76.0808 200.123C76.1099 200.094 101.594 176.7 102.031 176.087C102.821 174.978 103.188 173.622 103.065 172.265C102.943 170.909 102.339 169.641 101.364 168.69ZM95.856 174.35C95.5339 174.038 95.3085 173.64 95.2066 173.203C95.1047 172.767 95.1307 172.31 95.2815 171.888C95.4323 171.465 95.7014 171.095 96.0568 170.822C96.4122 170.549 96.8388 170.383 97.2856 170.346C97.7324 170.309 98.1805 170.401 98.5764 170.611C98.9723 170.822 99.2992 171.142 99.5181 171.533C99.7369 171.924 99.8385 172.37 99.8106 172.818C99.7827 173.265 99.6266 173.695 99.3609 174.057C98.6836 175.077 96.9667 175.422 95.856 174.35Z" fill="#F39D21"/>
<path d="M99.361 174.054C99.0471 174.528 98.3968 174.942 97.6646 174.997C95.9359 173.177 94.6847 170.957 94.0226 168.536C93.3605 166.115 93.3081 163.567 93.8701 161.121C94.4321 158.674 95.5909 156.405 97.2432 154.515C98.8956 152.626 100.99 151.175 103.34 150.291C105.689 149.408 108.221 149.12 110.709 149.454C113.197 149.787 115.563 150.731 117.598 152.201C119.632 153.672 121.271 155.623 122.368 157.881C123.464 160.139 123.985 162.633 123.883 165.141L122.028 164.71C122.061 162.501 121.544 160.32 120.525 158.36C119.506 156.401 118.017 154.725 116.19 153.483C114.364 152.241 112.258 151.472 110.061 151.245C107.864 151.018 105.646 151.34 103.604 152.181C101.562 153.023 99.7612 154.359 98.3627 156.068C96.9643 157.777 96.0121 159.807 95.5915 161.975C95.1709 164.143 95.2952 166.382 95.9531 168.49C96.611 170.598 97.782 172.51 99.361 174.054Z" fill="#71A1A2"/>
<path d="M111.579 177.483C110.962 175.264 109.114 174.157 107.237 174.157C106.617 174.156 106.004 174.28 105.434 174.523C104.864 174.766 104.349 175.123 103.921 175.571C103.492 176.019 103.16 176.549 102.942 177.129C102.725 177.71 102.628 178.328 102.657 178.947C102.799 182.105 104.176 206.403 104.182 206.44H110.285C110.285 206.407 111.931 178.74 111.579 177.483ZM107.237 180.502C106.865 180.503 106.502 180.394 106.192 180.188C105.883 179.983 105.641 179.69 105.498 179.347C105.356 179.004 105.318 178.626 105.389 178.262C105.461 177.897 105.64 177.562 105.902 177.299C106.164 177.036 106.499 176.857 106.863 176.784C107.228 176.711 107.605 176.748 107.949 176.89C108.292 177.031 108.586 177.272 108.792 177.581C108.999 177.89 109.109 178.253 109.109 178.625C109.109 178.871 109.061 179.115 108.967 179.343C108.873 179.571 108.735 179.778 108.561 179.952C108.387 180.127 108.18 180.265 107.953 180.36C107.725 180.454 107.481 180.503 107.235 180.503L107.237 180.502Z" fill="#F39D21"/>
<path d="M108.942 177.861C107.854 177.886 106.767 177.773 105.706 177.527H105.695C104.409 177.227 103.174 176.742 102.028 176.087C101.624 176.654 101.31 176.907 100.711 177.474C102.189 178.389 103.815 179.041 105.516 179.4H105.521C106.579 179.629 107.658 179.74 108.74 179.733C108.936 179.467 109.058 179.153 109.094 178.824C109.129 178.496 109.077 178.163 108.942 177.861Z" fill="#71A1A2"/>
<path d="M119.412 175.309C118.811 174.611 118.535 174.23 118.142 173.934C117.399 173.36 116.465 173.09 115.531 173.181C114.596 173.271 113.732 173.715 113.113 174.421C112.494 175.127 112.168 176.042 112.2 176.98C112.233 177.919 112.623 178.809 113.289 179.47C115.109 181.243 129.283 194.768 129.307 194.784L132.895 191.425C132.872 191.403 121.454 177.678 119.412 175.309ZM116.824 177.867C116.606 178.07 116.333 178.205 116.038 178.253C115.743 178.302 115.441 178.262 115.169 178.138C114.898 178.015 114.669 177.814 114.511 177.56C114.353 177.307 114.275 177.012 114.284 176.714C114.294 176.416 114.392 176.127 114.566 175.884C114.74 175.642 114.982 175.456 115.261 175.351C115.54 175.245 115.844 175.225 116.135 175.293C116.426 175.36 116.69 175.513 116.894 175.73C117.03 175.875 117.136 176.045 117.206 176.231C117.277 176.417 117.309 176.614 117.303 176.813C117.297 177.011 117.251 177.207 117.169 177.387C117.087 177.568 116.97 177.731 116.825 177.867H116.824Z" fill="#F39D21"/>
<path d="M117.27 177.074C115.529 178.294 113.757 178.969 111.791 179.374C111.816 178.736 111.743 178.098 111.575 177.482C113.2 177.275 115.1 176.326 116.428 175.391C116.74 175.533 116.993 175.778 117.146 176.084C117.299 176.39 117.342 176.74 117.27 177.074Z" fill="#71A1A2"/>
<path d="M122.766 170.287C121.997 172.169 120.856 173.877 119.412 175.309C118.727 174.515 118.535 174.23 118.142 173.934C119.311 172.763 120.25 171.383 120.91 169.866L122.766 170.287Z" fill="#71A1A2"/>
<path d="M81.059 205.816C76.2363 210.772 68.6883 211.249 64.1977 206.882C59.7072 202.514 59.98 194.953 64.8028 189.998C69.6255 185.042 77.1767 184.564 81.6629 188.937C86.1492 193.31 85.8817 200.86 81.059 205.816Z" fill="#262D3F"/>
<path d="M78.0903 202.927C75.0286 206.074 70.2372 206.378 67.3869 203.603C64.5366 200.828 64.7091 196.032 67.7708 192.886C70.8325 189.74 75.6239 189.435 78.4742 192.211C81.3245 194.987 81.1519 199.781 78.0903 202.927Z" fill="#A7DAD9"/>
<path d="M116.347 206.925C116.347 212.482 112.266 216.989 107.232 216.989C102.198 216.989 98.1174 212.482 98.1174 206.925C98.1174 201.368 102.198 196.86 107.232 196.86C112.266 196.86 116.347 201.366 116.347 206.925Z" fill="#262D3F"/>
<path d="M113.019 206.925C113.019 210.453 110.431 213.313 107.233 213.313C104.034 213.313 101.441 210.453 101.441 206.925C101.441 203.396 104.03 200.535 107.228 200.535C110.427 200.535 113.019 203.396 113.019 206.925Z" fill="#A7DAD9"/>
<path d="M136.723 188.379C139.782 191.646 139.863 196.539 136.905 199.309C133.946 202.08 129.068 201.682 126.012 198.411C122.957 195.14 122.873 190.249 125.831 187.48C128.789 184.71 133.665 185.112 136.723 188.379Z" fill="#262D3F"/>
<path d="M134.765 190.212C136.706 192.284 136.759 195.388 134.88 197.149C133.002 198.91 129.906 198.652 127.965 196.579C126.023 194.505 125.972 191.402 127.849 189.64C129.727 187.878 132.824 188.138 134.765 190.212Z" fill="#A7DAD9"/>
</svg>
