<svg xmlns="http://www.w3.org/2000/svg" viewBox="0 0 500 500">
  <defs>
    <style>
      .cls-1 {
        isolation: isolate;
      }

      .cls-2, .cls-4, .cls-7, .cls-9 {
        fill: #fff;
      }

      .cls-3 {
        fill: #006837;
      }

      .cls-4, .cls-5 {
        opacity: 0.25;
      }

      .cls-4, .cls-7, .cls-9 {
        mix-blend-mode: overlay;
      }

      .cls-5 {
        mix-blend-mode: multiply;
      }

      .cls-6 {
        fill: #d9e021;
      }

      .cls-8 {
        fill: #8cc63f;
      }

      .cls-9 {
        opacity: 0.5;
      }

      .cls-10 {
        fill: #39b54a;
      }

      .cls-11 {
        fill: #009245;
      }
    </style>
  </defs>
  <g class="cls-1">
    <g id="BACKGROUND">
      <rect class="cls-2" width="500" height="500"/>
    </g>
    <g id="OBJECTS">
      <g>
        <g>
          <g>
            <path class="cls-3" d="M229.19,311.35a17,17,0,1,1-31.75-8.51,16.35,16.35,0,0,1,2.69-3.53,17,17,0,0,1,24.07,0,16,16,0,0,1,2.68,3.53A17,17,0,0,1,229.19,311.35Z"/>
            <path class="cls-4" d="M197.44,319.86a16.29,16.29,0,0,1,2.69-3.52,17,17,0,0,1,24.07,0,15.93,15.93,0,0,1,2.68,3.52,15.93,15.93,0,0,1-2.68,3.52,17,17,0,0,1-24.07,0A16.29,16.29,0,0,1,197.44,319.86Z"/>
            <path class="cls-5" d="M226.88,302.84H197.44a16.35,16.35,0,0,1,2.69-3.53,17,17,0,0,1,24.07,0A16,16,0,0,1,226.88,302.84Z"/>
          </g>
          <g>
            <path class="cls-3" d="M326.63,311.35a17,17,0,1,1-31.74-8.51,16,16,0,0,1,2.68-3.53,17,17,0,0,1,24.07,0,15.73,15.73,0,0,1,2.69,3.53A16.79,16.79,0,0,1,326.63,311.35Z"/>
            <path class="cls-4" d="M294.89,319.86a15.68,15.68,0,0,1,2.69-3.52,17,17,0,0,1,24.07,0,15.93,15.93,0,0,1,2.68,3.52,15.93,15.93,0,0,1-2.68,3.52,17,17,0,0,1-24.07,0A15.68,15.68,0,0,1,294.89,319.86Z"/>
            <path class="cls-5" d="M324.33,302.84H294.89a16,16,0,0,1,2.68-3.53,17,17,0,0,1,24.07,0A15.73,15.73,0,0,1,324.33,302.84Z"/>
          </g>
        </g>
        <g>
          <g>
            <g>
              <path class="cls-3" d="M156.57,124.11l-8.31,8.51L140,141.13l-23.41,24a33.91,33.91,0,0,1-9.85-24l8.31-8.51,8.31-8.51,23.41-24A33.89,33.89,0,0,1,156.57,124.11Z"/>
              <polygon class="cls-5" points="156.57 124.11 148.26 132.62 115 132.62 123.31 124.11 156.57 124.11"/>
            </g>
            <g>
              <path class="cls-3" d="M385.53,226.24l-37.41,8.51-37.41,8.51L179,273.24h0a34.06,34.06,0,0,1-17.88-30l74.81-17,131.73-30A34.09,34.09,0,0,1,385.53,226.24Z"/>
              <polygon class="cls-5" points="385.53 226.24 348.12 234.75 198.51 234.75 235.91 226.24 385.53 226.24"/>
            </g>
            <g>
              <path class="cls-3" d="M415.09,175.17l-46.46,8.51-46.48,8.52L155.29,222.75a34,34,0,0,1-19-30.55l46.48-8.52,46.46-8.51L396,144.61A34,34,0,0,1,415.09,175.17Z"/>
              <polygon class="cls-5" points="415.08 175.17 368.63 183.68 182.72 183.68 229.19 175.17 415.08 175.17"/>
            </g>
          </g>
          <g>
            <g>
              <path class="cls-6" d="M156.57,124.11H73.82a17,17,0,0,1,0-34h48.71a34.05,34.05,0,0,1,34,34.05Z"/>
              <path class="cls-7" d="M152,107.09H56.8a17,17,0,0,1,17-17h48.71a34.06,34.06,0,0,1,29.48,17Z"/>
            </g>
            <g>
              <path class="cls-8" d="M415.09,175.17H140.73a34,34,0,0,1-34-34H381a33.7,33.7,0,0,1,15,3.48,34.08,34.08,0,0,1,19,30.56Z"/>
              <path class="cls-9" d="M410.52,158.15H111.25a33.75,33.75,0,0,1-4.56-17H381a33.7,33.7,0,0,1,15,3.48A34,34,0,0,1,410.52,158.15Z"/>
            </g>
            <g>
              <path class="cls-10" d="M385.53,226.24H170.29a33.57,33.57,0,0,1-15-3.49,34,34,0,0,1-19-30.55H351.48a34.06,34.06,0,0,1,16.16,4.06,34.47,34.47,0,0,1,13.34,13A33.94,33.94,0,0,1,385.53,226.24Z"/>
              <path class="cls-9" d="M381,209.22H140.81a33.86,33.86,0,0,1-4.56-17H351.48a34.06,34.06,0,0,1,16.16,4.06A34.47,34.47,0,0,1,381,209.22Z"/>
            </g>
            <g>
              <path class="cls-11" d="M360.67,260.28a17,17,0,0,1-17,17H195.14A33.79,33.79,0,0,1,179,273.24h0a34.4,34.4,0,0,1-13.34-13,33.94,33.94,0,0,1-4.54-17H343.65A17,17,0,0,1,360.67,260.28Z"/>
              <path class="cls-9" d="M360.67,260.28h-195a33.94,33.94,0,0,1-4.54-17H343.65A17,17,0,0,1,360.67,260.28Z"/>
            </g>
          </g>
        </g>
      </g>
    </g>
  </g>
</svg>
