<svg xmlns="http://www.w3.org/2000/svg" viewBox="0 0 78.86 78.86">
  <defs>
    <style>
      .cls-1 {
        isolation: isolate;
      }

      .cls-2 {
        fill: #6e558e;
      }

      .cls-3 {
        fill: #5fc167;
      }

      .cls-4 {
        fill: #b2da5b;
      }

      .cls-5 {
        fill: none;
        stroke: #c6c7c8;
        stroke-linecap: round;
        stroke-miterlimit: 10;
        stroke-width: 0.87px;
      }

      .cls-5, .cls-6 {
        mix-blend-mode: multiply;
      }

      .cls-6 {
        fill: #c6c7c8;
      }
    </style>
  </defs>
  <g class="cls-1">
    <g id="Object">
      <g>
        <g>
          <path class="cls-2" d="M162.65,153.49a39.43,39.43,0,1,1,39.43,39.43A39.43,39.43,0,0,1,162.65,153.49Z" transform="translate(-162.65 -114.06)"/>
          <g>
            <path class="cls-3" d="M186.84,166.65" transform="translate(-162.65 -114.06)"/>
            <path class="cls-3" d="M188.76,168.89" transform="translate(-162.65 -114.06)"/>
          </g>
        </g>
        <g>
          <g>
            <path class="cls-3" d="M212.78,155s-8.37,8.88-8.37,21.85h-5.48c0-13-8.37-21.85-8.37-21.85Z" transform="translate(-162.65 -114.06)"/>
            <path class="cls-4" d="M218.26,140a8.13,8.13,0,0,0-9-6,8.12,8.12,0,0,0-15.38,0,8.13,8.13,0,0,0-9,6,8.12,8.12,0,1,0,5.76,15.15,12.18,12.18,0,0,0,21.82,0A8.12,8.12,0,1,0,218.26,140Z" transform="translate(-162.65 -114.06)"/>
            <path class="cls-5" d="M194.34,138.57a6,6,0,0,0,6,6" transform="translate(-162.65 -114.06)"/>
            <path class="cls-5" d="M209.55,140.41a11.93,11.93,0,0,1-11.94,11.94" transform="translate(-162.65 -114.06)"/>
            <path class="cls-5" d="M185.81,143.93a6,6,0,0,0,6,6" transform="translate(-162.65 -114.06)"/>
            <path class="cls-5" d="M216,144.59c0,2.26,1.5,4.08,3.37,4.08" transform="translate(-162.65 -114.06)"/>
          </g>
          <path class="cls-6" d="M218.26,140a8.13,8.13,0,0,0-9-6,8.12,8.12,0,0,0-7.61-5.52v48.4h2.74a34,34,0,0,1,5.9-18.63,12.38,12.38,0,0,0,1.94-2.61l.35-.42A8.12,8.12,0,1,0,218.26,140Z" transform="translate(-162.65 -114.06)"/>
        </g>
      </g>
    </g>
  </g>
</svg>
